<svg class="animated" id="freepik_stories-protecting-the-environment" xmlns="http://www.w3.org/2000/svg" viewBox="0 0 750 500" version="1.1" xmlns:xlink="http://www.w3.org/1999/xlink" xmlns:svgjs="http://svgjs.com/svgjs"><style>svg#freepik_stories-protecting-the-environment:not(.animated) .animable {opacity: 0;}svg#freepik_stories-protecting-the-environment.animated #freepik--Clouds--inject-67 {animation: 1.5s Infinite  linear floating;animation-delay: 0s;}            @keyframes floating {                0% {                    opacity: 1;                    transform: translateY(0px);                }                50% {                    transform: translateY(-10px);                }                100% {                    opacity: 1;                    transform: translateY(0px);                }            }        </style><g id="freepik--background-simple--inject-67" class="animable" style="transform-origin: 377.808px 258.746px;"><path d="M633,79.21c-49.22-29-105-41-160.89-48.49a415.06,415.06,0,0,0-228.95,35C223,75.1,203.41,92,181.37,96.32l22.14-30.9C207.77,59.49,212,51,207,45.57c-2-2.2-5.07-3.12-8-3.55-11.4-1.68-22.84,2.45-33.17,7.53-47.63,23.39-86.52,67-116.1,110.16C1,230.91,6.39,347.79,62.16,405.06S237.21,490.2,286.79,484c37.63-4.7-2.92-27.05-11.25-40.6a7.1,7.1,0,0,1-1.35-3.87c.11-2.37,2.27-4.07,4.32-5.26,17.2-10,39.17-7,58.21-8.55a791.85,791.85,0,0,1,91.13-2.24c4.12.15,51.7,1.29,47.93,11-3,7.7-14.82,13.92-21,18.64-4.77,3.62-35.63,24.6-26.72,31.76,2.46,2,5.79,2.39,8.94,2.69,52.12,5.05,105.75,3.5,157.08-7.36,44.69-9.45,94-24.83,120.69-64.78,27.19-40.74,28.85-95.15,18.48-141.58a225.81,225.81,0,0,0-9.82-32.51c-3.81-9.8-9.87-18.06-14.93-27.22-2-3.69-3.44-8.14-2-12.09,6.47-17.43,25.28,17.34,30.41-1.33,2.49-9.07-2.31-22.52-5.36-31.08-5.49-15.42-14.78-29.3-25.91-41.23C684.36,105.59,659.14,94.58,633,79.21Z" style="fill: rgb(11, 95, 255); transform-origin: 377.808px 258.746px;" id="eloewgon819si" class="animable"></path><g id="elazhwwg6k3ra"><path d="M633,79.21c-49.22-29-105-41-160.89-48.49a415.06,415.06,0,0,0-228.95,35C223,75.1,203.41,92,181.37,96.32l22.14-30.9C207.77,59.49,212,51,207,45.57c-2-2.2-5.07-3.12-8-3.55-11.4-1.68-22.84,2.45-33.17,7.53-47.63,23.39-86.52,67-116.1,110.16C1,230.91,6.39,347.79,62.16,405.06S237.21,490.2,286.79,484c37.63-4.7-2.92-27.05-11.25-40.6a7.1,7.1,0,0,1-1.35-3.87c.11-2.37,2.27-4.07,4.32-5.26,17.2-10,39.17-7,58.21-8.55a791.85,791.85,0,0,1,91.13-2.24c4.12.15,51.7,1.29,47.93,11-3,7.7-14.82,13.92-21,18.64-4.77,3.62-35.63,24.6-26.72,31.76,2.46,2,5.79,2.39,8.94,2.69,52.12,5.05,105.75,3.5,157.08-7.36,44.69-9.45,94-24.83,120.69-64.78,27.19-40.74,28.85-95.15,18.48-141.58a225.81,225.81,0,0,0-9.82-32.51c-3.81-9.8-9.87-18.06-14.93-27.22-2-3.69-3.44-8.14-2-12.09,6.47-17.43,25.28,17.34,30.41-1.33,2.49-9.07-2.31-22.52-5.36-31.08-5.49-15.42-14.78-29.3-25.91-41.23C684.36,105.59,659.14,94.58,633,79.21Z" style="fill: rgb(255, 255, 255); opacity: 0.7; transform-origin: 377.808px 258.746px;" class="animable"></path></g></g><g id="freepik--Clouds--inject-67" class="animable" style="transform-origin: 370.81px 107.15px;"><path d="M686.63,119.7a13.53,13.53,0,0,0-1.29-.71c-6.71-3.19-12.15-.64-15.35,4.16s-4.15,7.35-6.39,5.12-5.76-5.44-10.87-2.56-4.16,5.75-7,6.39-4.79-2.24-9.27-1.28-7,4.48-8,5.12-8.64,3.52-8.64,3.52h99.44s-1.59-9-6.71-11.51-8.95,1.91-11.83,3.83-3.52.32-3.52.32a43.44,43.44,0,0,0-6.77-9.33" style="fill: none; stroke: rgb(38, 50, 56); stroke-linecap: round; stroke-linejoin: round; transform-origin: 669.54px 128.517px;" id="el9myiaff9t7n" class="animable"></path><path d="M327.93,129.85a11.54,11.54,0,0,0-1.29-.7c-6.71-3.2-12.15-.64-15.35,4.15s-4.15,7.36-6.39,5.12S299.14,133,294,135.86s-4.16,5.76-7,6.39S282.2,140,277.72,141s-7,4.47-8,5.11-8.63,3.52-8.63,3.52h99.44s-1.6-9-6.72-11.51S344.87,140,342,141.94s-3.52.31-3.52.31a43,43,0,0,0-6.77-9.33" style="fill: none; stroke: rgb(38, 50, 56); stroke-linecap: round; stroke-linejoin: round; transform-origin: 310.81px 138.68px;" id="elabp3z277ud7" class="animable"></path><path d="M89.17,151.79a13.53,13.53,0,0,0-1.29-.71c-6.71-3.19-12.15-.63-15.35,4.16s-4.15,7.36-6.39,5.12-5.76-5.44-10.87-2.56-4.16,5.75-7,6.39S43.44,162,39,162.91s-7,4.48-8,5.12-8.64,3.52-8.64,3.52h99.44s-1.6-9-6.71-11.51-9,1.92-11.83,3.83-3.52.32-3.52.32a43.44,43.44,0,0,0-6.77-9.33" style="fill: none; stroke: rgb(38, 50, 56); stroke-linecap: round; stroke-linejoin: round; transform-origin: 72.08px 160.608px;" id="elewk7dv0jelh" class="animable"></path><path d="M315,46.82a25.88,25.88,0,0,0-2.47-1.35c-12.88-6.13-23.3-1.23-29.43,8s-8,14.1-12.27,9.81-11-10.42-20.85-4.9-8,11-13.49,12.26-9.2-4.29-17.78-2.45S205.21,76.74,203.37,78s-16.56,6.74-16.56,6.74H377.52s-3.06-17.17-12.88-22.07S347.47,66.32,342,70s-6.74.61-6.74.61a82.93,82.93,0,0,0-13-17.9" style="fill: none; stroke: rgb(38, 50, 56); stroke-linecap: round; stroke-linejoin: round; transform-origin: 282.165px 63.7445px;" id="elsg8cj5t0rs" class="animable"></path></g><g id="freepik--Trees--inject-67" class="animable" style="transform-origin: 378.56px 256.475px;"><path d="M114.17,343.94c0,25.3-15,45.8-33.42,45.8s-33.42-20.5-33.42-45.8,15-112.22,33.42-112.22S114.17,318.65,114.17,343.94Z" style="fill: rgb(11, 95, 255); transform-origin: 80.75px 310.73px;" id="elxnd3jmbw00b" class="animable"></path><g id="eldotvfpwejvg"><path d="M114.17,343.94c0,25.3-15,45.8-33.42,45.8s-33.42-20.5-33.42-45.8,15-112.22,33.42-112.22S114.17,318.65,114.17,343.94Z" style="fill: rgb(255, 255, 255); opacity: 0.53; transform-origin: 80.75px 310.73px;" class="animable"></path></g><polygon points="62.69 346.22 73.35 349.94 78.63 357.11 77.71 379.09 71.57 374.92 77.52 383.64 76.12 416.84 82.64 416.84 81.78 366.94 99.49 357.18 89.37 360.92 91.4 354.83 86.56 361.96 81.73 363.75 81.38 343.74 98.97 320.38 89.54 329.81 91.14 323.25 86.63 332.72 81.29 338.06 80.75 306.81 78.83 352.39 62.17 334.74 71.32 347.18 62.69 346.22" style="fill: rgb(178, 178, 178); transform-origin: 80.83px 361.825px;" id="eldg3ol8iurgr" class="animable"></polygon><path d="M99.13,306.91a7.27,7.27,0,0,1-6.07,8.16,7.25,7.25,0,0,1,6.07-8.16Z" style="fill: rgb(255, 255, 255); transform-origin: 96.0938px 310.99px;" id="elh5k0r69aodb" class="animable"></path><path d="M109.21,321.06a7.25,7.25,0,0,1-6.08,8.16,7.26,7.26,0,0,1,6.08-8.16Z" style="fill: rgb(255, 255, 255); transform-origin: 106.171px 325.14px;" id="elzkzzg0grna" class="animable"></path><path d="M109.2,348.62a7.26,7.26,0,0,1-8.47,5.64,7.24,7.24,0,0,1,8.47-5.64Z" style="fill: rgb(255, 255, 255); transform-origin: 104.965px 351.438px;" id="elgfm2yrl437c" class="animable"></path><path d="M53.88,348.62A8.52,8.52,0,0,0,57,353.17a8.53,8.53,0,0,0,5.39,1.09,8.53,8.53,0,0,0-3.08-4.56A8.56,8.56,0,0,0,53.88,348.62Z" style="fill: rgb(255, 255, 255); transform-origin: 58.135px 351.437px;" id="el8il1hggifp8" class="animable"></path><path d="M97.57,337.18a7.26,7.26,0,0,1-6.08,8.16,7.26,7.26,0,0,1,6.08-8.16Z" style="fill: rgb(255, 255, 255); transform-origin: 94.53px 341.26px;" id="eledrio0cgwik" class="animable"></path><path d="M95,291.51a7.25,7.25,0,0,1-6.08,8.16A7.26,7.26,0,0,1,95,291.51Z" style="fill: rgb(255, 255, 255); transform-origin: 91.9606px 295.59px;" id="elpi4q1n4mpk" class="animable"></path><path d="M89,303.25a7.27,7.27,0,0,1-6.08,8.17A7.27,7.27,0,0,1,89,303.25Z" style="fill: rgb(255, 255, 255); transform-origin: 85.96px 307.335px;" id="el3oe1obphnxf" class="animable"></path><path d="M103.2,294.71a7.25,7.25,0,0,1-6.07,8.16,7.25,7.25,0,0,1,6.07-8.16Z" style="fill: rgb(255, 255, 255); transform-origin: 100.165px 298.79px;" id="elyj1kgo8hob" class="animable"></path><path d="M56.91,294.71A7.25,7.25,0,0,0,63,302.87a8.54,8.54,0,0,0-1.37-5.33A8.49,8.49,0,0,0,56.91,294.71Z" style="fill: rgb(255, 255, 255); transform-origin: 59.9333px 298.79px;" id="els9my515qo2" class="animable"></path><path d="M96.26,277.16a7.27,7.27,0,0,1-6.07,8.16,7.25,7.25,0,0,1,6.07-8.16Z" style="fill: rgb(255, 255, 255); transform-origin: 93.2238px 281.24px;" id="elzldx6v072" class="animable"></path><path d="M93.31,261.91a7.25,7.25,0,0,1-3.83,9.43,7.27,7.27,0,0,1,3.83-9.43Z" style="fill: rgb(255, 255, 255); transform-origin: 91.398px 266.625px;" id="eldculyezq24i" class="animable"></path><path d="M72.18,257.93a7.26,7.26,0,0,1,3.47,9.57,7.27,7.27,0,0,1-3.47-9.57Z" style="fill: rgb(255, 255, 255); transform-origin: 73.9166px 262.715px;" id="elrihj3j5b5k8" class="animable"></path><path d="M82,276.16a7.26,7.26,0,0,1-.58,10.16,8.52,8.52,0,0,1-1.79-5.2A8.61,8.61,0,0,1,82,276.16Z" style="fill: rgb(255, 255, 255); transform-origin: 81.7149px 281.24px;" id="ellywqhugo2qm" class="animable"></path><path d="M81.51,249a7.26,7.26,0,0,1-.58,10.16A7.26,7.26,0,0,1,81.51,249Z" style="fill: rgb(255, 255, 255); transform-origin: 81.22px 254.08px;" id="elus5ix941b9f" class="animable"></path><path d="M59.39,306.91a7.26,7.26,0,0,0,6.08,8.16,8.51,8.51,0,0,0-1.37-5.32A8.51,8.51,0,0,0,59.39,306.91Z" style="fill: rgb(255, 255, 255); transform-origin: 62.4089px 310.99px;" id="elzofcmn58b4c" class="animable"></path><path d="M53.65,323.61a7.26,7.26,0,0,0,6.08,8.16,8.51,8.51,0,0,0-1.37-5.32A8.51,8.51,0,0,0,53.65,323.61Z" style="fill: rgb(255, 255, 255); transform-origin: 56.6689px 327.69px;" id="elx15rl8iy9z" class="animable"></path><path d="M68.89,329.67A7.25,7.25,0,0,0,75,337.83a7.26,7.26,0,0,0-6.08-8.16Z" style="fill: rgb(255, 255, 255); transform-origin: 71.9447px 333.75px;" id="elim7iz8bteg" class="animable"></path><path d="M73.06,306.53a7.27,7.27,0,0,0,3.48,9.56,7.25,7.25,0,0,0-3.48-9.56Z" style="fill: rgb(255, 255, 255); transform-origin: 74.8032px 311.31px;" id="eldu1s0tujlnp" class="animable"></path><path d="M62.27,368.11a8.58,8.58,0,0,0,5.19-1.8,8.53,8.53,0,0,0,2.44-4.93,8.5,8.5,0,0,0-5.19,1.8A8.53,8.53,0,0,0,62.27,368.11Z" style="fill: rgb(255, 255, 255); transform-origin: 66.085px 364.745px;" id="elzs1ted4g1gp" class="animable"></path><path d="M91.87,364.73a7.28,7.28,0,0,0,8.65,5.37,7.26,7.26,0,0,0-8.65-5.37Z" style="fill: rgb(255, 255, 255); transform-origin: 96.195px 367.413px;" id="elhzy93uv4nss" class="animable"></path><path d="M65.71,291.51a7.25,7.25,0,0,0,6.08,8.16,7.26,7.26,0,0,0-6.08-8.16Z" style="fill: rgb(255, 255, 255); transform-origin: 68.7494px 295.59px;" id="eleur41mm2qxg" class="animable"></path><path d="M65.66,277.94a7.27,7.27,0,0,0,6.07,8.17,7.27,7.27,0,0,0-6.07-8.17Z" style="fill: rgb(255, 255, 255); transform-origin: 68.695px 282.025px;" id="el3jkq3cm5s13" class="animable"></path><path d="M709.79,366.69c0,25.3-15,45.8-33.42,45.8S643,392,643,366.69s15-112.23,33.42-112.23S709.79,341.4,709.79,366.69Z" style="fill: rgb(11, 95, 255); transform-origin: 676.395px 333.475px;" id="elo8pkmz1039" class="animable"></path><g id="el8tdh0veea44"><path d="M709.79,366.69c0,25.3-15,45.8-33.42,45.8S643,392,643,366.69s15-112.23,33.42-112.23S709.79,341.4,709.79,366.69Z" style="fill: rgb(255, 255, 255); opacity: 0.53; transform-origin: 676.395px 333.475px;" class="animable"></path></g><polygon points="658.32 368.96 668.98 372.68 674.26 379.86 673.34 401.84 667.19 397.67 673.15 406.39 671.75 439.59 678.27 439.59 677.41 389.68 695.11 379.93 684.99 383.67 687.02 377.58 682.19 384.71 677.36 386.49 677.01 366.49 694.59 343.13 685.17 352.55 686.76 346 682.26 355.47 676.91 360.81 676.37 329.56 674.46 375.14 657.8 357.48 666.95 369.92 658.32 368.96" style="fill: rgb(178, 178, 178); transform-origin: 676.455px 384.575px;" id="elafr7tm9gms" class="animable"></polygon><path d="M694.76,329.66a7.26,7.26,0,0,1-6.08,8.16,7.25,7.25,0,0,1,6.08-8.16Z" style="fill: rgb(255, 255, 255); transform-origin: 691.719px 333.74px;" id="el8rfjxmzgqb7" class="animable"></path><path d="M704.83,343.81a7.26,7.26,0,0,1-6.08,8.16,7.26,7.26,0,0,1,6.08-8.16Z" style="fill: rgb(255, 255, 255); transform-origin: 701.79px 347.89px;" id="el82kw7jyj2ac" class="animable"></path><path d="M704.83,371.36a7.24,7.24,0,0,1-8.47,5.64,7.26,7.26,0,0,1,8.47-5.64Z" style="fill: rgb(255, 255, 255); transform-origin: 700.595px 374.182px;" id="el5eekzrip0er" class="animable"></path><path d="M649.51,371.36A7.24,7.24,0,0,0,658,377a7.26,7.26,0,0,0-8.47-5.64Z" style="fill: rgb(255, 255, 255); transform-origin: 653.755px 374.184px;" id="el76nvbv5jfc" class="animable"></path><path d="M693.19,359.93a7.27,7.27,0,0,1-6.07,8.16,7.25,7.25,0,0,1,6.07-8.16Z" style="fill: rgb(255, 255, 255); transform-origin: 690.154px 364.01px;" id="elst69u4v1ac" class="animable"></path><path d="M690.58,314.26a7.25,7.25,0,0,1-6.07,8.16,7.27,7.27,0,0,1,6.07-8.16Z" style="fill: rgb(255, 255, 255); transform-origin: 687.546px 318.34px;" id="el0n2zxreepxch" class="animable"></path><path d="M684.58,326a7.27,7.27,0,0,1-6.07,8.17,7.25,7.25,0,0,1,6.07-8.17Z" style="fill: rgb(255, 255, 255); transform-origin: 681.544px 330.085px;" id="eld4ln4ps7jn5" class="animable"></path><path d="M698.83,317.45a7.27,7.27,0,0,1-6.08,8.17,7.27,7.27,0,0,1,6.08-8.17Z" style="fill: rgb(255, 255, 255); transform-origin: 695.79px 321.535px;" id="el33daungwba5" class="animable"></path><path d="M652.53,317.45a7.27,7.27,0,0,0,6.08,8.17,7.27,7.27,0,0,0-6.08-8.17Z" style="fill: rgb(255, 255, 255); transform-origin: 655.57px 321.535px;" id="elggekds3sutd" class="animable"></path><path d="M691.89,299.91a7.26,7.26,0,0,1-6.08,8.16,7.26,7.26,0,0,1,6.08-8.16Z" style="fill: rgb(255, 255, 255); transform-origin: 688.85px 303.99px;" id="elaxgjysyxjqr" class="animable"></path><path d="M688.94,284.66a7.27,7.27,0,0,1-3.83,9.43,7.27,7.27,0,0,1,3.83-9.43Z" style="fill: rgb(255, 255, 255); transform-origin: 687.025px 289.375px;" id="el6z0cbc2ty8h" class="animable"></path><path d="M667.81,280.68a7.26,7.26,0,0,1,3.47,9.57,7.25,7.25,0,0,1-3.47-9.57Z" style="fill: rgb(255, 255, 255); transform-origin: 669.543px 285.465px;" id="el59bztn7wa0m" class="animable"></path><path d="M677.66,298.91a7.26,7.26,0,0,1-.58,10.16,7.26,7.26,0,0,1,.58-10.16Z" style="fill: rgb(255, 255, 255); transform-origin: 677.37px 303.99px;" id="elukkhhrrt5c" class="animable"></path><path d="M677.14,271.77a7.24,7.24,0,0,1-.59,10.16,7.27,7.27,0,0,1,.59-10.16Z" style="fill: rgb(255, 255, 255); transform-origin: 676.851px 276.85px;" id="el2fmhgvhs20r" class="animable"></path><path d="M655,329.66a7.26,7.26,0,0,0,6.08,8.16,7.25,7.25,0,0,0-6.08-8.16Z" style="fill: rgb(255, 255, 255); transform-origin: 658.041px 333.74px;" id="elyw4jjwod3cb" class="animable"></path><path d="M649.28,346.36a7.26,7.26,0,0,0,6.08,8.16,7.25,7.25,0,0,0-6.08-8.16Z" style="fill: rgb(255, 255, 255); transform-origin: 652.321px 350.44px;" id="el6okg00ch0wt" class="animable"></path><path d="M664.52,352.42a7.26,7.26,0,0,0,6.08,8.16,7.26,7.26,0,0,0-6.08-8.16Z" style="fill: rgb(255, 255, 255); transform-origin: 667.56px 356.5px;" id="eluofd6kvce8c" class="animable"></path><path d="M668.68,329.28a7.26,7.26,0,0,0,3.49,9.56,7.26,7.26,0,0,0-3.49-9.56Z" style="fill: rgb(255, 255, 255); transform-origin: 670.425px 334.06px;" id="el0z97rpfmnw6r" class="animable"></path><path d="M657.89,390.86a7.27,7.27,0,0,0,7.64-6.73,7.27,7.27,0,0,0-7.64,6.73Z" style="fill: rgb(255, 255, 255); transform-origin: 661.71px 387.495px;" id="el4hkxd2pm1x" class="animable"></path><path d="M687.5,387.48a7.28,7.28,0,0,0,8.65,5.37,7.26,7.26,0,0,0-8.65-5.37Z" style="fill: rgb(255, 255, 255); transform-origin: 691.825px 390.163px;" id="el4wlzsy5brae" class="animable"></path><path d="M661.34,314.26a7.27,7.27,0,0,0,6.07,8.16,7.27,7.27,0,0,0-6.07-8.16Z" style="fill: rgb(255, 255, 255); transform-origin: 664.375px 318.34px;" id="elyt48vjr8qc" class="animable"></path><path d="M661.28,300.69a7.25,7.25,0,0,0,6.08,8.16,7.26,7.26,0,0,0-6.08-8.16Z" style="fill: rgb(255, 255, 255); transform-origin: 664.319px 304.77px;" id="eljwwdkxukiq" class="animable"></path><path d="M631.57,302.29c0,25.29-15,45.8-33.42,45.8s-33.42-20.51-33.42-45.8,15-112.23,33.42-112.23S631.57,277,631.57,302.29Z" style="fill: rgb(11, 95, 255); transform-origin: 598.15px 269.075px;" id="el0yhzbqyw25jd" class="animable"></path><g id="el2j4nxcogywi"><path d="M631.57,302.29c0,25.29-15,45.8-33.42,45.8s-33.42-20.51-33.42-45.8,15-112.23,33.42-112.23S631.57,277,631.57,302.29Z" style="fill: rgb(255, 255, 255); opacity: 0.53; transform-origin: 598.15px 269.075px;" class="animable"></path></g><polygon points="580.1 304.56 590.75 308.28 596.04 315.46 595.11 337.44 588.97 333.27 594.92 341.99 593.53 375.19 600.05 375.19 599.19 325.28 616.89 315.52 606.77 319.27 608.8 313.17 603.96 320.3 599.13 322.09 598.79 302.09 616.37 278.73 606.95 288.15 608.54 281.6 604.03 291.06 598.69 296.41 598.15 265.16 596.23 310.74 579.57 293.08 588.73 305.52 580.1 304.56" style="fill: rgb(178, 178, 178); transform-origin: 598.23px 320.175px;" id="ellgaedwkkj9r" class="animable"></polygon><path d="M616.54,265.25a7.27,7.27,0,0,1-6.08,8.17,7.27,7.27,0,0,1,6.08-8.17Z" style="fill: rgb(255, 255, 255); transform-origin: 613.5px 269.335px;" id="el7zpw3u9dg9h" class="animable"></path><path d="M626.61,279.41a7.26,7.26,0,0,1-6.08,8.16,7.26,7.26,0,0,1,6.08-8.16Z" style="fill: rgb(255, 255, 255); transform-origin: 623.57px 283.49px;" id="elpoyuvbw7kud" class="animable"></path><path d="M626.6,307a7.26,7.26,0,0,1-8.47,5.64A7.28,7.28,0,0,1,626.6,307Z" style="fill: rgb(255, 255, 255); transform-origin: 622.365px 309.822px;" id="elcp5jlmldraj" class="animable"></path><path d="M571.28,307a7.28,7.28,0,0,0,8.47,5.64,7.26,7.26,0,0,0-8.47-5.64Z" style="fill: rgb(255, 255, 255); transform-origin: 575.515px 309.818px;" id="el6bu5dyxy9b4" class="animable"></path><path d="M615,295.52a7.27,7.27,0,0,1-6.08,8.17,7.27,7.27,0,0,1,6.08-8.17Z" style="fill: rgb(255, 255, 255); transform-origin: 611.96px 299.605px;" id="ellvyf5v6xqqb" class="animable"></path><path d="M612.36,249.86a7.26,7.26,0,0,1-6.08,8.16,7.26,7.26,0,0,1,6.08-8.16Z" style="fill: rgb(255, 255, 255); transform-origin: 609.32px 253.94px;" id="elh3ox4x6qvau" class="animable"></path><path d="M606.36,261.6a7.25,7.25,0,0,1-6.08,8.16,7.26,7.26,0,0,1,6.08-8.16Z" style="fill: rgb(255, 255, 255); transform-origin: 603.321px 265.68px;" id="eli8cao5j2iul" class="animable"></path><path d="M620.61,253.05a7.25,7.25,0,0,1-6.08,8.16,7.26,7.26,0,0,1,6.08-8.16Z" style="fill: rgb(255, 255, 255); transform-origin: 617.571px 257.13px;" id="el9qks72mzu6j" class="animable"></path><path d="M574.31,253.05a7.25,7.25,0,0,0,6.07,8.16,7.25,7.25,0,0,0-6.07-8.16Z" style="fill: rgb(255, 255, 255); transform-origin: 577.345px 257.13px;" id="eliwokmig9y7" class="animable"></path><path d="M613.67,235.51a7.26,7.26,0,0,1-6.08,8.16,7.25,7.25,0,0,1,6.08-8.16Z" style="fill: rgb(255, 255, 255); transform-origin: 610.629px 239.59px;" id="el6ttzj4snpx8" class="animable"></path><path d="M610.72,220.26a7.26,7.26,0,0,1-3.84,9.43,7.26,7.26,0,0,1,3.84-9.43Z" style="fill: rgb(255, 255, 255); transform-origin: 608.8px 224.975px;" id="elnsy51th4vz" class="animable"></path><path d="M589.58,216.28a7.26,7.26,0,0,1,3.47,9.56,7.26,7.26,0,0,1-3.47-9.56Z" style="fill: rgb(255, 255, 255); transform-origin: 591.315px 221.06px;" id="elasghzjkauo6" class="animable"></path><path d="M599.44,234.51a7.27,7.27,0,0,1-.59,10.16,7.27,7.27,0,0,1,.59-10.16Z" style="fill: rgb(255, 255, 255); transform-origin: 599.145px 239.59px;" id="el9gylitc9fwc" class="animable"></path><path d="M598.91,207.37a7.26,7.26,0,0,1-.58,10.16,7.26,7.26,0,0,1,.58-10.16Z" style="fill: rgb(255, 255, 255); transform-origin: 598.62px 212.45px;" id="elxxhja4lya7i" class="animable"></path><path d="M576.8,265.25a7.27,7.27,0,0,0,6.07,8.17,7.27,7.27,0,0,0-6.07-8.17Z" style="fill: rgb(255, 255, 255); transform-origin: 579.835px 269.335px;" id="el4b60chil11" class="animable"></path><path d="M571.06,282a7.25,7.25,0,0,0,6.07,8.17,7.27,7.27,0,0,0-6.07-8.17Z" style="fill: rgb(255, 255, 255); transform-origin: 574.094px 286.085px;" id="eloyv5rral14" class="animable"></path><path d="M586.29,288a7.26,7.26,0,0,0,6.08,8.16,7.26,7.26,0,0,0-6.08-8.16Z" style="fill: rgb(255, 255, 255); transform-origin: 589.33px 292.08px;" id="elfu9trbg5u1e" class="animable"></path><path d="M590.46,264.88a7.26,7.26,0,0,0,3.49,9.56,7.26,7.26,0,0,0-3.49-9.56Z" style="fill: rgb(255, 255, 255); transform-origin: 592.205px 269.66px;" id="eldnykfqneal4" class="animable"></path><path d="M579.67,326.45a7.27,7.27,0,0,0,7.64-6.72,7.25,7.25,0,0,0-7.64,6.72Z" style="fill: rgb(255, 255, 255); transform-origin: 583.49px 323.089px;" id="eln7u2az9jx8f" class="animable"></path><path d="M609.28,323.08a7.24,7.24,0,0,0,8.64,5.36,7.24,7.24,0,0,0-8.64-5.36Z" style="fill: rgb(255, 255, 255); transform-origin: 613.6px 325.76px;" id="eln3fflizfy5g" class="animable"></path><path d="M583.11,249.86a7.26,7.26,0,0,0,6.08,8.16,7.26,7.26,0,0,0-6.08-8.16Z" style="fill: rgb(255, 255, 255); transform-origin: 586.15px 253.94px;" id="elye40dheeeo" class="animable"></path><path d="M583.06,236.29a7.26,7.26,0,0,0,6.08,8.16,7.26,7.26,0,0,0-6.08-8.16Z" style="fill: rgb(255, 255, 255); transform-origin: 586.1px 240.37px;" id="elikr4av8s54" class="animable"></path><path d="M386.84,289.1c0,25.3-15,45.8-33.42,45.8S320,314.4,320,289.1s15-112.23,33.43-112.23S386.84,263.81,386.84,289.1Z" style="fill: rgb(11, 95, 255); transform-origin: 353.42px 255.885px;" id="eloky3ixr51lo" class="animable"></path><g id="el047tspn6216g"><path d="M386.84,289.1c0,25.3-15,45.8-33.42,45.8S320,314.4,320,289.1s15-112.23,33.43-112.23S386.84,263.81,386.84,289.1Z" style="fill: rgb(255, 255, 255); opacity: 0.53; transform-origin: 353.42px 255.885px;" class="animable"></path></g><polygon points="335.36 291.38 346.02 295.09 351.3 302.27 350.38 324.25 344.23 320.08 350.19 328.8 348.79 362 355.31 362 354.45 312.09 372.15 302.33 362.04 306.08 364.07 299.99 359.23 307.12 354.4 308.9 354.05 288.9 371.63 265.54 362.21 274.96 363.81 268.41 359.3 277.88 353.95 283.22 353.42 251.97 351.5 297.55 334.84 279.89 343.99 292.33 335.36 291.38" style="fill: rgb(178, 178, 178); transform-origin: 353.495px 306.985px;" id="elat3rcbfq2bc" class="animable"></polygon><path d="M371.8,252.07a7.26,7.26,0,0,1-6.08,8.16,7.25,7.25,0,0,1,6.08-8.16Z" style="fill: rgb(255, 255, 255); transform-origin: 368.759px 256.15px;" id="el9767p0je8dg" class="animable"></path><path d="M381.87,266.22a7.25,7.25,0,0,1-6.07,8.16,7.27,7.27,0,0,1,6.07-8.16Z" style="fill: rgb(255, 255, 255); transform-origin: 378.836px 270.3px;" id="el2krrfisjsma" class="animable"></path><path d="M381.87,293.77a7.24,7.24,0,0,1-8.47,5.64,7.26,7.26,0,0,1,8.47-5.64Z" style="fill: rgb(255, 255, 255); transform-origin: 377.635px 296.592px;" id="elm2ko0hxm9li" class="animable"></path><path d="M326.55,293.77a7.24,7.24,0,0,0,8.47,5.64,7.26,7.26,0,0,0-8.47-5.64Z" style="fill: rgb(255, 255, 255); transform-origin: 330.785px 296.592px;" id="elm0c7ecn4osm" class="animable"></path><path d="M370.24,282.34a7.26,7.26,0,0,1-6.08,8.16,7.25,7.25,0,0,1,6.08-8.16Z" style="fill: rgb(255, 255, 255); transform-origin: 367.199px 286.42px;" id="elyqv57v029as" class="animable"></path><path d="M367.63,236.67a7.26,7.26,0,0,1-6.08,8.16,7.26,7.26,0,0,1,6.08-8.16Z" style="fill: rgb(255, 255, 255); transform-origin: 364.59px 240.75px;" id="elahj1vcsi3x" class="animable"></path><path d="M361.62,248.41a7.25,7.25,0,0,1-6.07,8.17,7.27,7.27,0,0,1,6.07-8.17Z" style="fill: rgb(255, 255, 255); transform-origin: 358.586px 252.495px;" id="eldkilg9p9dyd" class="animable"></path><path d="M375.87,239.86A7.27,7.27,0,0,1,369.8,248a7.25,7.25,0,0,1,6.07-8.17Z" style="fill: rgb(255, 255, 255); transform-origin: 372.832px 243.915px;" id="elrduj0uhwmxa" class="animable"></path><path d="M329.57,239.86a7.27,7.27,0,0,0,6.08,8.17,7.27,7.27,0,0,0-6.08-8.17Z" style="fill: rgb(255, 255, 255); transform-origin: 332.61px 243.945px;" id="elj7jthpt4g2n" class="animable"></path><path d="M368.93,222.32a7.26,7.26,0,0,1-6.08,8.16,7.26,7.26,0,0,1,6.08-8.16Z" style="fill: rgb(255, 255, 255); transform-origin: 365.89px 226.4px;" id="elitseazwbaks" class="animable"></path><path d="M366,207.07a7.27,7.27,0,0,1-3.83,9.43,7.27,7.27,0,0,1,3.83-9.43Z" style="fill: rgb(255, 255, 255); transform-origin: 364.085px 211.785px;" id="elyci5ttpq9j" class="animable"></path><path d="M344.85,203.09a7.26,7.26,0,0,1,3.47,9.57,7.27,7.27,0,0,1-3.47-9.57Z" style="fill: rgb(255, 255, 255); transform-origin: 346.587px 207.875px;" id="els1rrcqj9u7l" class="animable"></path><path d="M354.7,221.32a7.26,7.26,0,0,1-.58,10.16,7.26,7.26,0,0,1,.58-10.16Z" style="fill: rgb(255, 255, 255); transform-origin: 354.41px 226.4px;" id="elarmsbax5mba" class="animable"></path><path d="M354.18,194.18a7.26,7.26,0,0,1-.58,10.16,7.26,7.26,0,0,1,.58-10.16Z" style="fill: rgb(255, 255, 255); transform-origin: 353.89px 199.26px;" id="elfl06te1mg5v" class="animable"></path><path d="M332.06,252.07a7.26,7.26,0,0,0,6.08,8.16,7.25,7.25,0,0,0-6.08-8.16Z" style="fill: rgb(255, 255, 255); transform-origin: 335.101px 256.15px;" id="eldul9urprdx" class="animable"></path><path d="M326.32,268.77a7.26,7.26,0,0,0,6.08,8.16,7.25,7.25,0,0,0-6.08-8.16Z" style="fill: rgb(255, 255, 255); transform-origin: 329.361px 272.85px;" id="elnxce6j7jvw" class="animable"></path><path d="M341.56,274.83a7.26,7.26,0,0,0,6.08,8.16,7.26,7.26,0,0,0-6.08-8.16Z" style="fill: rgb(255, 255, 255); transform-origin: 344.6px 278.91px;" id="elszeodt3a5gg" class="animable"></path><path d="M345.73,251.69a7.25,7.25,0,0,0,3.48,9.56,7.25,7.25,0,0,0-3.48-9.56Z" style="fill: rgb(255, 255, 255); transform-origin: 347.47px 256.47px;" id="elqsn7tidewql" class="animable"></path><path d="M334.94,313.27a7.27,7.27,0,0,0,7.63-6.73,7.25,7.25,0,0,0-7.63,6.73Z" style="fill: rgb(255, 255, 255); transform-origin: 338.755px 309.904px;" id="elomgic3wgckt" class="animable"></path><path d="M364.54,309.89a7.28,7.28,0,0,0,8.65,5.37,7.26,7.26,0,0,0-8.65-5.37Z" style="fill: rgb(255, 255, 255); transform-origin: 368.865px 312.573px;" id="elxybxoxedi1l" class="animable"></path><path d="M338.38,236.67a7.26,7.26,0,0,0,6.08,8.16,7.26,7.26,0,0,0-6.08-8.16Z" style="fill: rgb(255, 255, 255); transform-origin: 341.42px 240.75px;" id="el92u5ddt601" class="animable"></path><path d="M338.32,223.1a8.62,8.62,0,0,0,1.37,5.33,8.53,8.53,0,0,0,4.71,2.83,7.26,7.26,0,0,0-6.08-8.16Z" style="fill: rgb(255, 255, 255); transform-origin: 341.382px 227.18px;" id="ell53lcofuekr" class="animable"></path><path d="M224.29,312.76c0,25.3-15,45.8-33.42,45.8s-33.42-20.5-33.42-45.8,15-112.23,33.42-112.23S224.29,287.47,224.29,312.76Z" style="fill: rgb(11, 95, 255); transform-origin: 190.87px 279.545px;" id="elnlxr9lfs76l" class="animable"></path><g id="elienwz42jwhj"><path d="M224.29,312.76c0,25.3-15,45.8-33.42,45.8s-33.42-20.5-33.42-45.8,15-112.23,33.42-112.23S224.29,287.47,224.29,312.76Z" style="fill: rgb(255, 255, 255); opacity: 0.53; transform-origin: 190.87px 279.545px;" class="animable"></path></g><polygon points="172.82 315.04 183.48 318.75 188.76 325.93 187.84 347.91 181.69 343.74 187.65 352.46 186.25 385.66 192.77 385.66 191.91 335.75 209.61 326 199.49 329.74 201.52 323.65 196.69 330.78 191.85 332.56 191.51 312.56 209.09 289.2 199.67 298.62 201.26 292.07 196.75 301.54 191.41 306.88 190.87 275.63 188.96 321.21 172.3 303.56 181.45 316 172.82 315.04" style="fill: rgb(178, 178, 178); transform-origin: 190.955px 330.645px;" id="elm4q3jf9abpk" class="animable"></polygon><path d="M209.26,275.73a7.26,7.26,0,0,1-6.08,8.16,7.26,7.26,0,0,1,6.08-8.16Z" style="fill: rgb(255, 255, 255); transform-origin: 206.22px 279.81px;" id="elg88ovy04yuu" class="animable"></path><path d="M219.33,289.88a7.26,7.26,0,0,1-6.08,8.16,7.26,7.26,0,0,1,6.08-8.16Z" style="fill: rgb(255, 255, 255); transform-origin: 216.29px 293.96px;" id="el1wpft3ho4a2" class="animable"></path><path d="M219.33,317.43a7.26,7.26,0,0,1-8.47,5.65,7.26,7.26,0,0,1,8.47-5.65Z" style="fill: rgb(255, 255, 255); transform-origin: 215.095px 320.255px;" id="el35uhw89jzw8" class="animable"></path><path d="M164,317.43a7.26,7.26,0,0,0,8.47,5.65,7.26,7.26,0,0,0-8.47-5.65Z" style="fill: rgb(255, 255, 255); transform-origin: 168.235px 320.255px;" id="el5feww27yf0a" class="animable"></path><path d="M207.69,306a7.27,7.27,0,0,1-6.07,8.16,7.23,7.23,0,0,1,6.07-8.16Z" style="fill: rgb(255, 255, 255); transform-origin: 204.652px 310.08px;" id="elaj7ztca746g" class="animable"></path><path d="M205.08,260.33a7.25,7.25,0,0,1-6.07,8.16,7.27,7.27,0,0,1,6.07-8.16Z" style="fill: rgb(255, 255, 255); transform-origin: 202.046px 264.41px;" id="ellruz6m8g9qn" class="animable"></path><path d="M199.08,272.07a7.27,7.27,0,0,1-6.08,8.17,7.27,7.27,0,0,1,6.08-8.17Z" style="fill: rgb(255, 255, 255); transform-origin: 196.04px 276.155px;" id="elod0a06cxb8" class="animable"></path><path d="M213.33,263.52a7.27,7.27,0,0,1-6.08,8.17,7.27,7.27,0,0,1,6.08-8.17Z" style="fill: rgb(255, 255, 255); transform-origin: 210.29px 267.605px;" id="elzi613119khg" class="animable"></path><path d="M167,263.52a7.27,7.27,0,0,0,6.08,8.17,7.27,7.27,0,0,0-6.08-8.17Z" style="fill: rgb(255, 255, 255); transform-origin: 170.04px 267.605px;" id="elk1v85d0jwqm" class="animable"></path><path d="M206.39,246a7.26,7.26,0,0,1-6.08,8.16,7.26,7.26,0,0,1,6.08-8.16Z" style="fill: rgb(255, 255, 255); transform-origin: 203.35px 250.08px;" id="ele4nsxx2vm17" class="animable"></path><path d="M203.44,230.73a7.27,7.27,0,0,1-3.83,9.43,7.25,7.25,0,0,1,3.83-9.43Z" style="fill: rgb(255, 255, 255); transform-origin: 201.522px 235.445px;" id="elba9rejh0alc" class="animable"></path><path d="M182.3,226.75a7.24,7.24,0,0,1,3.47,9.57,7.27,7.27,0,0,1-3.47-9.57Z" style="fill: rgb(255, 255, 255); transform-origin: 184.04px 231.535px;" id="ellta6lutoe5s" class="animable"></path><path d="M192.16,245a7.26,7.26,0,0,1-.58,10.16,7.26,7.26,0,0,1,.58-10.16Z" style="fill: rgb(255, 255, 255); transform-origin: 191.87px 250.08px;" id="el7hxs6axupze" class="animable"></path><path d="M191.64,217.84a7.27,7.27,0,0,1-.59,10.16,7.27,7.27,0,0,1,.59-10.16Z" style="fill: rgb(255, 255, 255); transform-origin: 191.345px 222.92px;" id="el3rhu75je51r" class="animable"></path><path d="M169.52,275.73a7.26,7.26,0,0,0,6.08,8.16,7.26,7.26,0,0,0-6.08-8.16Z" style="fill: rgb(255, 255, 255); transform-origin: 172.56px 279.81px;" id="el560rirjwajn" class="animable"></path><path d="M163.78,292.43a7.26,7.26,0,0,0,6.08,8.16,7.26,7.26,0,0,0-6.08-8.16Z" style="fill: rgb(255, 255, 255); transform-origin: 166.82px 296.51px;" id="elke4wg0ei0n" class="animable"></path><path d="M179,298.49a7.25,7.25,0,0,0,6.08,8.16,7.26,7.26,0,0,0-6.08-8.16Z" style="fill: rgb(255, 255, 255); transform-origin: 182.039px 302.57px;" id="elm7ippn7plw" class="animable"></path><path d="M183.18,275.35a7.26,7.26,0,0,0,3.49,9.56,7.26,7.26,0,0,0-3.49-9.56Z" style="fill: rgb(255, 255, 255); transform-origin: 184.925px 280.13px;" id="eligb7jzip9e" class="animable"></path><path d="M172.39,336.93A7.25,7.25,0,0,0,180,330.2a8.48,8.48,0,0,0-5.19,1.8A8.57,8.57,0,0,0,172.39,336.93Z" style="fill: rgb(255, 255, 255); transform-origin: 176.195px 333.57px;" id="el1brs1pth9zi" class="animable"></path><path d="M202,333.55a7.28,7.28,0,0,0,8.65,5.37,7.28,7.28,0,0,0-8.65-5.37Z" style="fill: rgb(255, 255, 255); transform-origin: 206.325px 336.235px;" id="elyayq2sugjv" class="animable"></path><path d="M175.84,260.33a7.23,7.23,0,0,0,6.07,8.16,7.27,7.27,0,0,0-6.07-8.16Z" style="fill: rgb(255, 255, 255); transform-origin: 178.872px 264.41px;" id="elqws6r2q4p" class="animable"></path><path d="M175.78,246.76a7.25,7.25,0,0,0,6.08,8.16,7.26,7.26,0,0,0-6.08-8.16Z" style="fill: rgb(255, 255, 255); transform-origin: 178.819px 250.84px;" id="elojbwythfw9h" class="animable"></path><path d="M687,244.67c0,38.61-22.84,69.91-51,69.91s-51-31.3-51-69.91S607.84,73.36,636,73.36,687,206.06,687,244.67Z" style="fill: rgb(11, 95, 255); transform-origin: 636px 193.97px;" id="el5cj1v9ldnbn" class="animable"></path><g id="elch7d6ezc41a"><path d="M687,244.67c0,38.61-22.84,69.91-51,69.91s-51-31.3-51-69.91S607.84,73.36,636,73.36,687,206.06,687,244.67Z" style="fill: rgb(255, 255, 255); opacity: 0.3; transform-origin: 636px 193.97px;" class="animable"></path></g><polygon points="608.46 248.14 624.73 253.82 632.79 264.77 631.38 298.32 622 291.96 631.09 305.26 628.96 355.94 638.91 355.94 637.6 279.77 664.62 264.87 649.18 270.58 652.28 261.29 644.89 272.17 637.52 274.9 636.99 244.36 663.83 208.71 649.45 223.09 651.88 213.09 645 227.54 636.84 235.69 636.02 187.99 633.1 257.56 607.66 230.62 621.63 249.6 608.46 248.14" style="fill: rgb(178, 178, 178); transform-origin: 636.14px 271.965px;" id="el9jp68qske6a" class="animable"></polygon><path d="M664.08,188.14s.48,4.68-2.09,8.13-7.18,4.33-7.18,4.33-.48-4.69,2.09-8.13S664.08,188.14,664.08,188.14Z" style="fill: rgb(255, 255, 255); transform-origin: 659.445px 194.37px;" id="elmptfdfa2gz" class="animable"></path><path d="M679.46,209.74s.47,4.69-2.09,8.13-7.19,4.33-7.19,4.33-.47-4.69,2.09-8.13S679.46,209.74,679.46,209.74Z" style="fill: rgb(255, 255, 255); transform-origin: 674.82px 215.97px;" id="elykjm06enllo" class="animable"></path><path d="M679.45,251.8s-1.13,4.58-4.7,6.95-8.23,1.66-8.23,1.66,1.14-4.57,4.71-7S679.45,251.8,679.45,251.8Z" style="fill: rgb(255, 255, 255); transform-origin: 672.985px 256.088px;" id="el0yye5r7um6" class="animable"></path><path d="M595,251.8s1.13,4.58,4.7,6.95,8.23,1.66,8.23,1.66-1.13-4.57-4.7-7S595,251.8,595,251.8Z" style="fill: rgb(255, 255, 255); transform-origin: 601.465px 256.088px;" id="el2cvifxubggi" class="animable"></path><path d="M661.69,234.34s.48,4.69-2.09,8.13-7.18,4.33-7.18,4.33-.47-4.68,2.09-8.12S661.69,234.34,661.69,234.34Z" style="fill: rgb(255, 255, 255); transform-origin: 657.056px 240.57px;" id="elda3pih71bmb" class="animable"></path><path d="M657.71,164.64s.47,4.68-2.09,8.12-7.19,4.34-7.19,4.34-.47-4.69,2.09-8.13S657.71,164.64,657.71,164.64Z" style="fill: rgb(255, 255, 255); transform-origin: 653.07px 170.87px;" id="elvc3gol98c7a" class="animable"></path><path d="M648.55,182.56s.47,4.69-2.09,8.13-7.19,4.33-7.19,4.33-.47-4.69,2.09-8.13S648.55,182.56,648.55,182.56Z" style="fill: rgb(255, 255, 255); transform-origin: 643.91px 188.79px;" id="elggkoz42ya9o" class="animable"></path><path d="M670.3,169.51s.47,4.69-2.09,8.13S661,182,661,182s-.47-4.69,2.09-8.13S670.3,169.51,670.3,169.51Z" style="fill: rgb(255, 255, 255); transform-origin: 665.65px 175.755px;" id="elu3dx45ijn19" class="animable"></path><path d="M599.62,169.51s-.47,4.69,2.09,8.13S608.9,182,608.9,182s.47-4.69-2.09-8.13S599.62,169.51,599.62,169.51Z" style="fill: rgb(255, 255, 255); transform-origin: 604.26px 175.755px;" id="el36rham03ay3" class="animable"></path><path d="M659.7,142.73s.47,4.69-2.09,8.13-7.18,4.33-7.18,4.33-.48-4.69,2.09-8.13S659.7,142.73,659.7,142.73Z" style="fill: rgb(255, 255, 255); transform-origin: 655.064px 148.96px;" id="el9bmiamjlg5k" class="animable"></path><path d="M655.2,119.46s1.63,4.42,0,8.39-5.87,6-5.87,6-1.63-4.42,0-8.39S655.2,119.46,655.2,119.46Z" style="fill: rgb(255, 255, 255); transform-origin: 652.265px 126.655px;" id="elssfki2cy74" class="animable"></path><path d="M622.94,113.38s4.17,2.18,5.64,6.21-.34,8.39-.34,8.39-4.18-2.19-5.64-6.22S622.94,113.38,622.94,113.38Z" style="fill: rgb(255, 255, 255); transform-origin: 625.592px 120.68px;" id="elfl9zlz1f0fk" class="animable"></path><path d="M638,141.2s3,3.66,2.73,7.94-3.62,7.57-3.62,7.57-3-3.65-2.72-7.93S638,141.2,638,141.2Z" style="fill: rgb(255, 255, 255); transform-origin: 637.559px 148.955px;" id="elc7x1mqh9b" class="animable"></path><path d="M637.19,99.78s3,3.65,2.72,7.94-3.61,7.57-3.61,7.57-3-3.66-2.73-7.94S637.19,99.78,637.19,99.78Z" style="fill: rgb(255, 255, 255); transform-origin: 636.741px 107.535px;" id="elvacadv066it" class="animable"></path><path d="M603.42,188.14s-.47,4.68,2.09,8.13,7.19,4.33,7.19,4.33.47-4.69-2.09-8.13S603.42,188.14,603.42,188.14Z" style="fill: rgb(255, 255, 255); transform-origin: 608.06px 194.37px;" id="elvxktusyy6on" class="animable"></path><path d="M594.66,213.63s-.47,4.69,2.09,8.13,7.19,4.33,7.19,4.33.47-4.69-2.09-8.13S594.66,213.63,594.66,213.63Z" style="fill: rgb(255, 255, 255); transform-origin: 599.3px 219.86px;" id="elpicpw0n5b5" class="animable"></path><path d="M617.92,222.89s-.47,4.68,2.09,8.12,7.19,4.34,7.19,4.34.47-4.69-2.09-8.13S617.92,222.89,617.92,222.89Z" style="fill: rgb(255, 255, 255); transform-origin: 622.56px 229.12px;" id="el274mj8s9nyr" class="animable"></path><path d="M624.28,187.56s-1.79,4.36-.32,8.39,5.64,6.21,5.64,6.21,1.8-4.36.33-8.39S624.28,187.56,624.28,187.56Z" style="fill: rgb(255, 255, 255); transform-origin: 626.944px 194.86px;" id="el1i9to4gvwpa" class="animable"></path><path d="M607.81,281.56s4.71.08,7.93-2.75,3.73-7.52,3.73-7.52-4.71-.09-7.93,2.75S607.81,281.56,607.81,281.56Z" style="fill: rgb(255, 255, 255); transform-origin: 613.64px 276.425px;" id="elk9c2t1o5o88" class="animable"></path><path d="M653,276.4s1.28,4.54,4.93,6.8,8.27,1.4,8.27,1.4-1.28-4.54-4.92-6.8S653,276.4,653,276.4Z" style="fill: rgb(255, 255, 255); transform-origin: 659.6px 280.5px;" id="elt1wspbwv8u" class="animable"></path><path d="M613.06,164.64s-.47,4.68,2.09,8.12,7.19,4.34,7.19,4.34.47-4.69-2.09-8.13S613.06,164.64,613.06,164.64Z" style="fill: rgb(255, 255, 255); transform-origin: 617.7px 170.87px;" id="el2qo437uayax" class="animable"></path><path d="M613,143.92s-.47,4.69,2.09,8.13,7.19,4.33,7.19,4.33.47-4.68-2.09-8.12S613,143.92,613,143.92Z" style="fill: rgb(255, 255, 255); transform-origin: 617.64px 150.15px;" id="elinqtktv0o8m" class="animable"></path><path d="M509.21,230.94c0,30-17.77,54.39-39.69,54.39S429.83,261,429.83,230.94,447.6,97.67,469.52,97.67,509.21,200.91,509.21,230.94Z" style="fill: rgb(11, 95, 255); transform-origin: 469.52px 191.5px;" id="elhohdjq62h2" class="animable"></path><g id="elxak66py5y4"><path d="M509.21,230.94c0,30-17.77,54.39-39.69,54.39S429.83,261,429.83,230.94,447.6,97.67,469.52,97.67,509.21,200.91,509.21,230.94Z" style="fill: rgb(255, 255, 255); opacity: 0.3; transform-origin: 469.52px 191.5px;" class="animable"></path></g><polygon points="448.08 233.64 460.74 238.06 467.01 246.59 465.91 272.68 458.62 267.73 465.69 278.08 464.03 317.51 471.77 317.51 470.75 258.25 491.77 246.66 479.76 251.1 482.17 243.87 476.42 252.34 470.69 254.46 470.28 230.7 491.15 202.97 479.97 214.15 481.86 206.37 476.5 217.61 470.16 223.96 469.52 186.84 467.25 240.98 447.46 220.01 458.33 234.78 448.08 233.64" style="fill: rgb(178, 178, 178); transform-origin: 469.615px 252.175px;" id="el5mdh5pydso7" class="animable"></polygon><path d="M491.35,187a8.61,8.61,0,0,1-7.21,9.7,8.61,8.61,0,0,1,7.21-9.7Z" style="fill: rgb(255, 255, 255); transform-origin: 487.745px 191.85px;" id="elfjza2g7gra" class="animable"></path><path d="M503.32,203.77a8.63,8.63,0,0,1-7.22,9.69,8.63,8.63,0,0,1,7.22-9.69Z" style="fill: rgb(255, 255, 255); transform-origin: 499.71px 208.615px;" id="el1bby1b8p4st" class="animable"></path><path d="M503.31,236.49a8.62,8.62,0,0,1-10.06,6.7,8.62,8.62,0,0,1,10.06-6.7Z" style="fill: rgb(255, 255, 255); transform-origin: 498.28px 239.84px;" id="elcn8lomt3iev" class="animable"></path><path d="M437.62,236.49a8.6,8.6,0,0,0,10.05,6.7,8.6,8.6,0,0,0-10.05-6.7Z" style="fill: rgb(255, 255, 255); transform-origin: 442.645px 239.84px;" id="ellwp3f474jv" class="animable"></path><path d="M489.5,222.91a8.63,8.63,0,0,1-7.22,9.69,8.61,8.61,0,0,1,7.22-9.69Z" style="fill: rgb(255, 255, 255); transform-origin: 485.889px 227.755px;" id="elwy2lche1zg" class="animable"></path><path d="M486.4,168.68a8.63,8.63,0,0,1-7.22,9.69,8.61,8.61,0,0,1,7.22-9.69Z" style="fill: rgb(255, 255, 255); transform-origin: 482.789px 173.525px;" id="elc2j5soadexs" class="animable"></path><path d="M479.27,182.62a8.63,8.63,0,0,1-7.22,9.7,8.63,8.63,0,0,1,7.22-9.7Z" style="fill: rgb(255, 255, 255); transform-origin: 475.66px 187.47px;" id="elwet3mkrtp5" class="animable"></path><path d="M496.19,172.47a8.63,8.63,0,0,1-7.22,9.69,8.63,8.63,0,0,1,7.22-9.69Z" style="fill: rgb(255, 255, 255); transform-origin: 492.58px 177.315px;" id="elapv10wd92ud" class="animable"></path><path d="M441.21,172.47a8.61,8.61,0,0,0,7.21,9.69,8.61,8.61,0,0,0-7.21-9.69Z" style="fill: rgb(255, 255, 255); transform-origin: 444.815px 177.315px;" id="el1p8qnerqc19" class="animable"></path><path d="M488,151.63a8.63,8.63,0,0,1-7.22,9.7,8.62,8.62,0,0,1,7.22-9.7Z" style="fill: rgb(255, 255, 255); transform-origin: 484.389px 156.48px;" id="elbtckcz87twm" class="animable"></path><path d="M484.44,133.53a8.62,8.62,0,0,1-4.55,11.2,8.64,8.64,0,0,1,4.55-11.2Z" style="fill: rgb(255, 255, 255); transform-origin: 482.168px 139.13px;" id="elzewqwduzako" class="animable"></path><path d="M459.34,128.8a8.62,8.62,0,0,1,4.13,11.36,8.62,8.62,0,0,1-4.13-11.36Z" style="fill: rgb(255, 255, 255); transform-origin: 461.405px 134.48px;" id="ellbbbul4i52s" class="animable"></path><path d="M471.05,150.45a8.61,8.61,0,0,1-.7,12.06,8.61,8.61,0,0,1,.7-12.06Z" style="fill: rgb(255, 255, 255); transform-origin: 470.7px 156.48px;" id="elh4ejtyp11f" class="animable"></path><path d="M470.43,118.22a8.64,8.64,0,0,1-.69,12.07,10.15,10.15,0,0,1-2.13-6.18A10.18,10.18,0,0,1,470.43,118.22Z" style="fill: rgb(255, 255, 255); transform-origin: 470.086px 124.255px;" id="elh07lejgsnzf" class="animable"></path><path d="M444.16,187a8.63,8.63,0,0,0,7.22,9.7,8.63,8.63,0,0,0-7.22-9.7Z" style="fill: rgb(255, 255, 255); transform-origin: 447.77px 191.85px;" id="el7ugpq8r89wo" class="animable"></path><path d="M437.34,206.8a8.63,8.63,0,0,0,7.22,9.69,8.61,8.61,0,0,0-7.22-9.69Z" style="fill: rgb(255, 255, 255); transform-origin: 440.951px 211.645px;" id="el0m5kuczq87el" class="animable"></path><path d="M455.44,214a8.63,8.63,0,0,0,7.22,9.69,8.63,8.63,0,0,0-7.22-9.69Z" style="fill: rgb(255, 255, 255); transform-origin: 459.05px 218.845px;" id="elsudm84vlpd8" class="animable"></path><path d="M460.39,186.51a8.63,8.63,0,0,0,4.14,11.36,8.64,8.64,0,0,0-4.14-11.36Z" style="fill: rgb(255, 255, 255); transform-origin: 462.458px 192.19px;" id="el37bly0nebby" class="animable"></path><path d="M447.57,259.64a8.62,8.62,0,0,0,9.07-8,8.62,8.62,0,0,0-9.07,8Z" style="fill: rgb(255, 255, 255); transform-origin: 452.105px 255.64px;" id="elton32iwty9g" class="animable"></path><path d="M482.73,255.63A8.62,8.62,0,0,0,493,262a8.63,8.63,0,0,0-10.27-6.37Z" style="fill: rgb(255, 255, 255); transform-origin: 487.865px 258.816px;" id="elz2at6qyx5n" class="animable"></path><path d="M451.66,168.68a8.63,8.63,0,0,0,7.22,9.69,8.63,8.63,0,0,0-7.22-9.69Z" style="fill: rgb(255, 255, 255); transform-origin: 455.27px 173.525px;" id="elvgdgey6bpma" class="animable"></path><path d="M451.6,152.56a8.61,8.61,0,0,0,7.22,9.7,8.63,8.63,0,0,0-7.22-9.7Z" style="fill: rgb(255, 255, 255); transform-origin: 455.209px 157.41px;" id="elaq86c94ea0m" class="animable"></path><path d="M189.92,248.8c0,39.4-23.31,71.34-52.06,71.34S85.8,288.2,85.8,248.8,109.11,74,137.86,74,189.92,209.4,189.92,248.8Z" style="fill: rgb(11, 95, 255); transform-origin: 137.86px 197.07px;" id="ely7rvlfb2cyj" class="animable"></path><g id="eln8zqh5ih7w"><path d="M189.92,248.8c0,39.4-23.31,71.34-52.06,71.34S85.8,288.2,85.8,248.8,109.11,74,137.86,74,189.92,209.4,189.92,248.8Z" style="fill: rgb(255, 255, 255); opacity: 0.3; transform-origin: 137.86px 197.07px;" class="animable"></path></g><polygon points="109.74 252.34 126.34 258.13 134.57 269.31 133.13 303.55 123.56 297.05 132.83 310.63 130.66 362.35 140.82 362.35 139.48 284.61 167.05 269.41 151.29 275.24 154.45 265.75 146.92 276.86 139.39 279.64 138.85 248.48 166.24 212.1 151.56 226.78 154.05 216.57 147.03 231.31 138.7 239.64 137.86 190.96 134.88 261.96 108.93 234.46 123.18 253.83 109.74 252.34" style="fill: rgb(178, 178, 178); transform-origin: 137.99px 276.655px;" id="elrkof51r9x4" class="animable"></polygon><path d="M166.5,191.11s.48,4.78-2.13,8.29-7.34,4.42-7.34,4.42-.48-4.78,2.14-8.29S166.5,191.11,166.5,191.11Z" style="fill: rgb(255, 255, 255); transform-origin: 161.765px 197.465px;" id="el6010fm4sbij" class="animable"></path><path d="M182.19,213.15s.48,4.79-2.13,8.3-7.33,4.42-7.33,4.42-.49-4.78,2.13-8.3S182.19,213.15,182.19,213.15Z" style="fill: rgb(255, 255, 255); transform-origin: 177.459px 219.51px;" id="elpkzmb2uz5xm" class="animable"></path><path d="M182.19,256.08s-1.16,4.66-4.8,7.09-8.4,1.69-8.4,1.69,1.16-4.66,4.8-7.09S182.19,256.08,182.19,256.08Z" style="fill: rgb(255, 255, 255); transform-origin: 175.59px 260.47px;" id="elf71dm0grgu5" class="animable"></path><path d="M96,256.08s1.16,4.66,4.8,7.09,8.4,1.69,8.4,1.69-1.16-4.66-4.8-7.09S96,256.08,96,256.08Z" style="fill: rgb(255, 255, 255); transform-origin: 102.6px 260.47px;" id="elgrfizm37hjs" class="animable"></path><path d="M164.06,238.26s.48,4.78-2.13,8.29S154.6,251,154.6,251s-.49-4.78,2.13-8.29S164.06,238.26,164.06,238.26Z" style="fill: rgb(255, 255, 255); transform-origin: 159.329px 244.63px;" id="eludfzof7ahm" class="animable"></path><path d="M160,167.13s.48,4.78-2.13,8.29-7.34,4.42-7.34,4.42-.48-4.78,2.13-8.29S160,167.13,160,167.13Z" style="fill: rgb(255, 255, 255); transform-origin: 155.265px 173.485px;" id="elul29jstfql" class="animable"></path><path d="M150.65,185.42s.48,4.78-2.13,8.29-7.34,4.42-7.34,4.42-.48-4.78,2.14-8.29S150.65,185.42,150.65,185.42Z" style="fill: rgb(255, 255, 255); transform-origin: 145.915px 191.775px;" id="elt5topk1p1l" class="animable"></path><path d="M172.84,172.1s.49,4.78-2.13,8.29-7.33,4.43-7.33,4.43-.48-4.79,2.13-8.3S172.84,172.1,172.84,172.1Z" style="fill: rgb(255, 255, 255); transform-origin: 168.111px 178.46px;" id="elf0zpoio4jl8" class="animable"></path><path d="M100.72,172.1s-.48,4.78,2.14,8.29,7.33,4.43,7.33,4.43.48-4.79-2.13-8.3S100.72,172.1,100.72,172.1Z" style="fill: rgb(255, 255, 255); transform-origin: 105.455px 178.46px;" id="eli48h0q23l1" class="animable"></path><path d="M162,144.77s.48,4.78-2.13,8.3-7.34,4.42-7.34,4.42-.48-4.79,2.14-8.3S162,144.77,162,144.77Z" style="fill: rgb(255, 255, 255); transform-origin: 157.265px 151.13px;" id="eli62ukihufu" class="animable"></path><path d="M157.44,121s1.66,4.51,0,8.57-6,6.12-6,6.12-1.67-4.51,0-8.56S157.44,121,157.44,121Z" style="fill: rgb(255, 255, 255); transform-origin: 154.438px 128.345px;" id="el7z1i0s7w41s" class="animable"></path><path d="M124.52,114.82s4.25,2.23,5.75,6.34-.35,8.56-.35,8.56-4.26-2.23-5.75-6.34S124.52,114.82,124.52,114.82Z" style="fill: rgb(255, 255, 255); transform-origin: 127.222px 122.27px;" id="elwrtt1u2fszn" class="animable"></path><path d="M139.87,143.22s3,3.72,2.78,8.09S139,159,139,159s-3-3.73-2.78-8.1S139.87,143.22,139.87,143.22Z" style="fill: rgb(255, 255, 255); transform-origin: 139.435px 151.11px;" id="eln2k4jknggc" class="animable"></path><path d="M139.06,100.94s3,3.73,2.78,8.1-3.7,7.73-3.7,7.73-3-3.73-2.78-8.1S139.06,100.94,139.06,100.94Z" style="fill: rgb(255, 255, 255); transform-origin: 138.6px 108.855px;" id="elgxnhsdlzxbf" class="animable"></path><path d="M104.6,191.11s-.48,4.78,2.13,8.29,7.34,4.42,7.34,4.42.48-4.78-2.13-8.29S104.6,191.11,104.6,191.11Z" style="fill: rgb(255, 255, 255); transform-origin: 109.335px 197.465px;" id="elrdo80d1hpwg" class="animable"></path><path d="M95.66,217.12s-.48,4.79,2.13,8.3,7.34,4.42,7.34,4.42.48-4.79-2.14-8.3S95.66,217.12,95.66,217.12Z" style="fill: rgb(255, 255, 255); transform-origin: 100.395px 223.48px;" id="elpcilgns3278" class="animable"></path><path d="M119.4,226.57s-.49,4.78,2.13,8.29,7.33,4.42,7.33,4.42.48-4.78-2.13-8.29S119.4,226.57,119.4,226.57Z" style="fill: rgb(255, 255, 255); transform-origin: 124.129px 232.925px;" id="elagqxjtrrbh7" class="animable"></path><path d="M125.89,190.52s-1.84,4.45-.34,8.56,5.76,6.34,5.76,6.34,1.84-4.45.34-8.56S125.89,190.52,125.89,190.52Z" style="fill: rgb(255, 255, 255); transform-origin: 128.6px 197.97px;" id="elw4cga89bmkn" class="animable"></path><path d="M109.08,286.44s4.8.09,8.09-2.81S121,276,121,276s-4.8-.09-8.09,2.81S109.08,286.44,109.08,286.44Z" style="fill: rgb(255, 255, 255); transform-origin: 115.04px 281.22px;" id="el921vl3d8b2" class="animable"></path><path d="M155.2,281.18s1.3,4.63,5,6.93,8.45,1.43,8.45,1.43-1.31-4.63-5-6.94S155.2,281.18,155.2,281.18Z" style="fill: rgb(255, 255, 255); transform-origin: 161.925px 285.356px;" id="el2zp4d3168cv" class="animable"></path><path d="M114.44,167.13s-.48,4.78,2.13,8.29,7.34,4.42,7.34,4.42.48-4.78-2.14-8.29S114.44,167.13,114.44,167.13Z" style="fill: rgb(255, 255, 255); transform-origin: 119.175px 173.485px;" id="elya2t7tqfxle" class="animable"></path><path d="M114.36,146s-.49,4.78,2.13,8.29,7.33,4.43,7.33,4.43.48-4.79-2.13-8.3S114.36,146,114.36,146Z" style="fill: rgb(255, 255, 255); transform-origin: 119.089px 152.36px;" id="el8xk275spxd2" class="animable"></path><path d="M317.57,234.68c0,30.05-17.77,54.4-39.7,54.4s-39.69-24.35-39.69-54.4,17.77-133.3,39.69-133.3S317.57,204.64,317.57,234.68Z" style="fill: rgb(11, 95, 255); transform-origin: 277.875px 195.23px;" id="ely5e3326yh9m" class="animable"></path><g id="elsccdo3kvbki"><path d="M317.57,234.68c0,30.05-17.77,54.4-39.7,54.4s-39.69-24.35-39.69-54.4,17.77-133.3,39.69-133.3S317.57,204.64,317.57,234.68Z" style="fill: rgb(255, 255, 255); opacity: 0.3; transform-origin: 277.875px 195.23px;" class="animable"></path></g><polygon points="256.43 237.38 269.09 241.8 275.36 250.32 274.27 276.43 266.97 271.48 274.04 281.83 272.38 321.27 280.13 321.27 279.11 261.99 300.13 250.4 288.11 254.84 290.52 247.61 284.78 256.08 279.04 258.2 278.63 234.44 299.51 206.7 288.32 217.89 290.21 210.11 284.86 221.35 278.51 227.69 277.87 190.57 275.6 244.71 255.81 223.74 266.68 238.52 256.43 237.38" style="fill: rgb(178, 178, 178); transform-origin: 277.97px 255.92px;" id="el8vzz5lnj1g9" class="animable"></polygon><path d="M299.71,190.69a8.62,8.62,0,0,1-7.22,9.7,8.63,8.63,0,0,1,7.22-9.7Z" style="fill: rgb(255, 255, 255); transform-origin: 296.101px 195.54px;" id="ele30ku1b7e9c" class="animable"></path><path d="M311.68,207.5a8.63,8.63,0,0,1-7.22,9.7,8.61,8.61,0,0,1,7.22-9.7Z" style="fill: rgb(255, 255, 255); transform-origin: 308.069px 212.35px;" id="elp66qs64qcbh" class="animable"></path><path d="M311.67,240.23a8.62,8.62,0,0,1-10.06,6.7,8.62,8.62,0,0,1,10.06-6.7Z" style="fill: rgb(255, 255, 255); transform-origin: 306.64px 243.58px;" id="elit9f8k15f0p" class="animable"></path><path d="M246,240.23a8.62,8.62,0,0,0,10.06,6.7,8.62,8.62,0,0,0-10.06-6.7Z" style="fill: rgb(255, 255, 255); transform-origin: 251.03px 243.58px;" id="el6zi08a7aov8" class="animable"></path><path d="M297.85,226.64a8.61,8.61,0,0,1-7.22,9.7,8.64,8.64,0,0,1,7.22-9.7Z" style="fill: rgb(255, 255, 255); transform-origin: 294.242px 231.49px;" id="el8b7lvlke3c9" class="animable"></path><path d="M294.75,172.4a8.61,8.61,0,0,1-7.22,9.7,8.63,8.63,0,0,1,7.22-9.7Z" style="fill: rgb(255, 255, 255); transform-origin: 291.141px 177.25px;" id="elj4cfvuk9w3" class="animable"></path><path d="M287.62,186.35a8.61,8.61,0,0,1-7.21,9.7,8.61,8.61,0,0,1,7.21-9.7Z" style="fill: rgb(255, 255, 255); transform-origin: 284.015px 191.2px;" id="elhsecfv56riq" class="animable"></path><path d="M304.55,176.2a8.63,8.63,0,0,1-7.22,9.69,8.63,8.63,0,0,1,7.22-9.69Z" style="fill: rgb(255, 255, 255); transform-origin: 300.94px 181.045px;" id="eld22amumg98" class="animable"></path><path d="M249.55,176.2a8.63,8.63,0,0,0,7.22,9.69,8.61,8.61,0,0,0-7.22-9.69Z" style="fill: rgb(255, 255, 255); transform-origin: 253.161px 181.045px;" id="ely6at4mn98n8" class="animable"></path><path d="M296.3,155.36a8.61,8.61,0,0,1-7.22,9.69,8.63,8.63,0,0,1,7.22-9.69Z" style="fill: rgb(255, 255, 255); transform-origin: 292.691px 160.205px;" id="elrhudd7wroqc" class="animable"></path><path d="M292.8,137.25a8.64,8.64,0,0,1-4.55,11.2,8.62,8.62,0,0,1,4.55-11.2Z" style="fill: rgb(255, 255, 255); transform-origin: 290.522px 142.85px;" id="el015n4n1wq5yt" class="animable"></path><path d="M267.7,132.52a8.62,8.62,0,0,1,4.12,11.36,8.61,8.61,0,0,1-4.12-11.36Z" style="fill: rgb(255, 255, 255); transform-origin: 269.758px 138.2px;" id="el6ol01viqbmy" class="animable"></path><path d="M279.4,154.17a8.63,8.63,0,0,1-.69,12.07,8.63,8.63,0,0,1,.69-12.07Z" style="fill: rgb(255, 255, 255); transform-origin: 279.055px 160.205px;" id="elwpvx3t913o8" class="animable"></path><path d="M278.78,121.93a8.63,8.63,0,0,1-.69,12.07,8.64,8.64,0,0,1,.69-12.07Z" style="fill: rgb(255, 255, 255); transform-origin: 278.437px 127.965px;" id="elx9o2p7yu1tm" class="animable"></path><path d="M252.51,190.69a8.64,8.64,0,0,0,7.22,9.7,8.63,8.63,0,0,0-7.22-9.7Z" style="fill: rgb(255, 255, 255); transform-origin: 256.121px 195.54px;" id="ellr82zh2xv8c" class="animable"></path><path d="M245.69,210.53a8.63,8.63,0,0,0,7.22,9.69,8.63,8.63,0,0,0-7.22-9.69Z" style="fill: rgb(255, 255, 255); transform-origin: 249.3px 215.375px;" id="elhsam569pso4" class="animable"></path><path d="M263.79,217.73a8.63,8.63,0,0,0,7.22,9.69,8.63,8.63,0,0,0-7.22-9.69Z" style="fill: rgb(255, 255, 255); transform-origin: 267.4px 222.575px;" id="elf70avudhag" class="animable"></path><path d="M268.74,190.24a8.63,8.63,0,0,0,4.14,11.36,8.63,8.63,0,0,0-4.14-11.36Z" style="fill: rgb(255, 255, 255); transform-origin: 270.81px 195.92px;" id="el5af56qbvkxg" class="animable"></path><path d="M255.92,263.38a8.62,8.62,0,0,0,9.07-8,8.62,8.62,0,0,0-9.07,8Z" style="fill: rgb(255, 255, 255); transform-origin: 260.455px 259.38px;" id="elp4dfqsnayl" class="animable"></path><path d="M291.09,259.37a8.63,8.63,0,0,0,10.27,6.38,8.63,8.63,0,0,0-10.27-6.38Z" style="fill: rgb(255, 255, 255); transform-origin: 296.225px 262.56px;" id="eloqce339upx" class="animable"></path><path d="M260,172.4a8.63,8.63,0,0,0,7.22,9.7,8.63,8.63,0,0,0-7.22-9.7Z" style="fill: rgb(255, 255, 255); transform-origin: 263.61px 177.25px;" id="elun87rukdhpp" class="animable"></path><path d="M260,156.29a8.63,8.63,0,0,0,7.22,9.69,8.63,8.63,0,0,0-7.22-9.69Z" style="fill: rgb(255, 255, 255); transform-origin: 263.61px 161.135px;" id="el0vq4gmy52twe" class="animable"></path></g><g id="freepik--World--inject-67" class="animable" style="transform-origin: 375.18px 401.216px;"><path d="M307,305.31C178.88,323.06,71.6,378.57.3,454.72v44.82H750.06V420.77C639.93,329.53,475.65,282,307,305.31Z" style="fill: rgb(11, 95, 255); stroke: rgb(38, 50, 56); stroke-miterlimit: 10; transform-origin: 375.18px 399.485px;" id="elxlsgmgh9tia" class="animable"></path><path d="M197.43,499.54l-7.27-21.89-31.4-3.07-20.13,14.85s-10.17,7-15.47,9.56a13.39,13.39,0,0,1-1.26.55Z" style="fill: rgb(255, 255, 255); stroke: rgb(38, 50, 56); stroke-miterlimit: 10; transform-origin: 159.665px 487.06px;" id="el8mo1h8ul2z2" class="animable"></path><path d="M199.06,497.5l-7.27-21.89-31.4-3.07-20.13,14.85s-10.17,7-15.47,9.57q-.53.26-1.26.54Z" style="fill: rgb(255, 255, 255); stroke: rgb(38, 50, 56); stroke-miterlimit: 10; transform-origin: 161.295px 485.02px;" id="elm8yfn3d5m48" class="animable"></path><path d="M129.3,458l-4.43,16.39,19.43-2.69,25.38-37.85.08-14.85,31.58-6.24,5.48-11.89,32.52-7.29-.14-15.75,23.8-4.23s15.46-9.56,18.89-10,20.48,1.8,20.48,1.8L322,373.78l24-3.32,18.27-12.74L391,355.88s7.7,2.64,13.41,1.85,21.39-9.46,21.39-9.46l36.93,11.59,15.61,6.19,3.14,13.48,17.57-.58,3.83-8.88L519,373.41l.54,7.35L486.94,392.7,511,409.78l45.34,12.28,21.35,15.6L603.24,436l3.62-9.78,8.73-3.06-33.92-13.86L563,410l14-5.65L559.7,391l19.22-3.59,27.66,7.3,10.76,20.78,15.3,9.94L649,450.05l28.51,10.89,6.92,29.67,29.44,9.84.3,2.57h27.37L721,485.54l-10.87-26.33,21.21-.16-1-9.14-15.07,1.16,11.53-6.24,12.24-8.19-2.1-9-17.07-12.48-7.45-18.94C604.34,323.56,457.42,288,307,308.79c-68.36,9.47-130.75,29.7-184.94,58l29.79,11-12.22,18.39-20.88,6.61,3.38,24.58-8.52,4-9.12,11.47,4.92,16Z" style="fill: rgb(255, 255, 255); stroke: rgb(38, 50, 56); stroke-miterlimit: 10; transform-origin: 423.015px 402.965px;" id="el9lumbj0m4wu" class="animable"></path><path d="M129.3,454.53l-4.43,16.39,19.43-2.69,25.38-37.85.08-14.86,31.58-6.23,5.48-11.89,32.52-7.29-.14-15.76,23.8-4.22s15.46-9.57,18.89-10,20.48,1.8,20.48,1.8L322,370.3,346,367l18.27-12.74L391,352.39s7.7,2.65,13.41,1.86,21.39-9.46,21.39-9.46l36.93,11.59,15.61,6.19,3.14,13.48,17.57-.58,3.83-8.88L519,369.93l.54,7.34-32.61,11.94L511,406.3l45.34,12.27,21.35,15.61,25.56-1.69,3.62-9.78,8.73-3.06-33.92-13.86-18.71.73,14-5.65L559.7,387.49l19.22-3.59,27.66,7.3L617.34,412l15.3,9.94L649,446.56l28.51,10.9,6.92,29.66L713.88,497l.3,2.57h27.37L721,482.06l-10.87-26.33,21.21-.16-1-9.14-15.07,1.15,11.53-6.23,12.24-8.19-2.1-9-17.07-12.48-7.45-18.94C604.34,320.08,457.42,284.47,307,305.31,238.68,314.77,176.29,335,122.1,363.36l29.79,11-12.22,18.39-20.88,6.61L122.17,424l-8.52,4-9.12,11.48,4.92,16Z" style="fill: rgb(255, 255, 255); stroke: rgb(38, 50, 56); stroke-miterlimit: 10; transform-origin: 423.04px 399.491px;" id="el0zy246wz91ji" class="animable"></path><polygon points="355.48 498.36 366.35 479.23 386.65 490.33 406.19 499.54 499.53 499.54 495.05 484.6 502.91 467.73 486.56 453.29 405.03 437.68 372.09 443.17 368.08 461.36 351.63 451.57 327.54 459.55 332.18 489.53 355.48 498.36" style="fill: rgb(255, 255, 255); stroke: rgb(38, 50, 56); stroke-miterlimit: 10; transform-origin: 415.225px 468.61px;" id="elqtw42ijdgim" class="animable"></polygon><polygon points="355.17 495.87 366.04 476.73 386.33 487.84 405.88 497.05 499.21 497.05 494.74 482.1 502.6 465.24 486.25 450.8 404.72 435.19 371.78 440.68 367.77 458.86 351.32 449.08 327.23 457.06 331.87 487.03 355.17 495.87" style="fill: rgb(255, 255, 255); stroke: rgb(38, 50, 56); stroke-miterlimit: 10; transform-origin: 414.915px 466.12px;" id="elyagxiniklf" class="animable"></polygon><polygon points="552.9 464.52 534.92 463.3 522.37 475.24 536.45 500.2 551.31 498.14 552.9 464.52" style="fill: rgb(255, 255, 255); stroke: rgb(38, 50, 56); stroke-miterlimit: 10; transform-origin: 537.635px 481.75px;" id="elta5s7wa9ud" class="animable"></polygon><polygon points="552.9 461.71 534.92 460.49 522.37 472.44 536.45 497.4 551.31 495.34 552.9 461.71" style="fill: rgb(255, 255, 255); stroke: rgb(38, 50, 56); stroke-miterlimit: 10; transform-origin: 537.635px 478.945px;" id="el35a7fj9irnq" class="animable"></polygon><polygon points="663.19 466.87 620.55 456.07 610.03 446.4 601.52 450.36 613.72 467.23 626.03 489.65 644.43 492.67 647.02 488.6 633.59 476.54 665.41 481.41 663.19 466.87" style="fill: rgb(255, 255, 255); stroke: rgb(38, 50, 56); stroke-miterlimit: 10; transform-origin: 633.465px 469.535px;" id="elkdmsn1q33tp" class="animable"></polygon><polygon points="663.19 464.69 620.55 453.89 610.03 444.22 601.52 448.18 613.72 465.05 626.03 487.47 644.43 490.48 647.02 486.42 633.59 474.36 665.41 479.23 663.19 464.69" style="fill: rgb(255, 255, 255); stroke: rgb(38, 50, 56); stroke-miterlimit: 10; transform-origin: 633.465px 467.35px;" id="elgqbu88vh1is" class="animable"></polygon></g><g id="freepik--chatacter-2--inject-67" class="animable" style="transform-origin: 521.571px 216.331px;"><path d="M478,299.88s-2.81,10.55-3.08,11.22-8.81,7.88-9.61,8.55-2,3.61-.67,5.21,6.54,1.74,10.55,1.87,9.75-2,11.49-2.54,4.27-.27,5.61-2.27a10.52,10.52,0,0,0,1.33-6.41c-.13-1.74-.53-4.94-.26-6s1.07-6.95,1.07-6.95S482.5,296.41,478,299.88Z" style="fill: rgb(38, 50, 56); stroke: rgb(38, 50, 56); stroke-miterlimit: 10; transform-origin: 479.237px 312.777px;" id="elkhyg6pcc6g" class="animable"></path><path d="M486.64,324.19c1.74-.53,4.27-.27,5.61-2.27a8.36,8.36,0,0,0,1.19-3.19c-2.68.33-7.12,2.55-10.41,4s-6,.14-10.82.14a66.93,66.93,0,0,1-8.16-.5,3.14,3.14,0,0,0,.55,2.5c1.33,1.6,6.54,1.74,10.55,1.87S484.9,324.73,486.64,324.19Z" style="fill: rgb(255, 255, 255); stroke: rgb(38, 50, 56); stroke-miterlimit: 10; transform-origin: 478.713px 322.738px;" id="ela2buv673nhh" class="animable"></path><path d="M500,194.49l-12,57.84-9.61,42.87s-1.87,1.61-1.47,2.28a22.71,22.71,0,0,1,1.07,2.4s5.34.4,6,.53a55.05,55.05,0,0,1,7.08,3.74c1.33.94,4.54-.26,5.07-1.33s-.53-5.48-.53-5.48l.27-5.34,10.28-38.2L525,212.12l4,.67,10.82,39.94,24.72-.4-9.49-56-53.7-7.22Z" style="fill: rgb(38, 50, 56); stroke: rgb(38, 50, 56); stroke-miterlimit: 10; transform-origin: 520.702px 246.8px;" id="el5ycvanfshbv" class="animable"></path><path d="M543.21,112.82s-25.43-1.35-29.49.41-28.14,18.53-29.49,20.42-2.7,4.6-2.3,6.49,2.3,8,2.3,8l12.18-3.52-.55-4.2s2.3,1.49,3.79,1,15.15-5,15.15-5L509,168.15l-10.83,23.26s-.4,4.06,3,8.66,10.55,9.47,10.55,9.47l8.93-8.52,3.25,13s15.42-1.48,21.77-5.68a54.33,54.33,0,0,0,11.23-10.41l-4.06-20,7.44-15.29,1.22,22.86-2.16,21.37,11.9,1.76s4.74-18.94,5.14-21.78,4.06-34.09,2.3-41.25a29.27,29.27,0,0,0-9.2-15.29l-3.51-3Z" style="fill: rgb(11, 95, 255); stroke: rgb(38, 50, 56); stroke-miterlimit: 10; transform-origin: 530.507px 163.173px;" id="elld8otfecj3q" class="animable"></path><path d="M550.31,178.06s-11.24,8.27-25.66,10" style="fill: none; stroke: rgb(38, 50, 56); stroke-miterlimit: 10; transform-origin: 537.48px 183.06px;" id="el85xryp67qdh" class="animable"></path><path d="M546.5,176.57s-2.76,2.76-14.43,5.09" style="fill: none; stroke: rgb(38, 50, 56); stroke-miterlimit: 10; transform-origin: 539.285px 179.115px;" id="el033n2gqh9b1f" class="animable"></path><path d="M546.46,112.82a4.61,4.61,0,0,0-4.47.54c-2,1.62-8.79,18.13-8.79,18.13l6.36.67-1.36,4.06,5.42,8.39,13.52-4.2.81-3.11s5.15,5.69,5.69,4.74.81-13.8.81-13.8,2.43-4.06-1.76-9.87S546.46,112.82,546.46,112.82Z" style="fill: none; stroke: rgb(38, 50, 56); stroke-miterlimit: 10; transform-origin: 549.175px 128.542px;" id="elckdrc5wmdh" class="animable"></path><path d="M547.26,109.91s-1.08-2.88-2.23-.72-.43,5.61-.43,5.61a17.23,17.23,0,0,0-3.74,7.63c-1.3,5.18,3,14.53,3.45,15.4s.43,5.32.43,5.32l8.93-7.63a4.34,4.34,0,0,0,4.46-.43c2.59-1.58,6.9-4.46,9.06-7.62s7.2-11.8,7.2-11.8L555.11,106Z" style="fill: rgb(255, 255, 255); stroke: rgb(38, 50, 56); stroke-miterlimit: 10; transform-origin: 557.503px 124.575px;" id="eljocfdeqfdfl" class="animable"></path><path d="M547.26,109.91l1.8,3.42s-1.44,3.41-.72,3.59,2.52-1.79,2.52-1.79,1.62,0,2.16-.72a23.84,23.84,0,0,0,1.44-2.52s6.11.54,7.91,1.44,4.5,3.77,7.92,4.13,6.29,0,7.73-2.87.72-6.84.72-6.84-.72-7.2-3.42-9.35-4-1.44-4-1.44-5.4-4.68-7.74-4.5a3.56,3.56,0,0,0-3.06,2.16s-1.62-.54-5.75.9-5.4,6.47-5.58,8.27A34.57,34.57,0,0,1,547.26,109.91Z" style="fill: rgb(38, 50, 56); stroke: rgb(38, 50, 56); stroke-miterlimit: 10; transform-origin: 563.09px 105.015px;" id="elgri6ou5m14i" class="animable"></path><path d="M553.67,121.71c.66-1.47,5.14,1,7.19,3.31" style="fill: none; stroke: rgb(38, 50, 56); stroke-miterlimit: 10; transform-origin: 557.265px 123.144px;" id="el3psfce8i25e" class="animable"></path><path d="M564,125.16s3.31-.72,4.89-.28" style="fill: none; stroke: rgb(38, 50, 56); stroke-miterlimit: 10; transform-origin: 566.445px 124.949px;" id="elp92bs2fp6i" class="animable"></path><path d="M555.25,124a2.57,2.57,0,0,0,3.16,1.59" style="fill: none; stroke: rgb(38, 50, 56); stroke-miterlimit: 10; transform-origin: 556.83px 124.85px;" id="el0l7n54k1ctaa" class="animable"></path><path d="M557.55,129.77c.58,1.15,3.17,2.88,4.17,1.87s1.3-4.75,1.3-4.75" style="fill: none; stroke: rgb(38, 50, 56); stroke-miterlimit: 10; transform-origin: 560.285px 129.417px;" id="elgj1xyiuugnm" class="animable"></path><path d="M553.23,128a4.16,4.16,0,0,0,5,3.6" style="fill: none; stroke: rgb(38, 50, 56); stroke-miterlimit: 10; transform-origin: 555.73px 129.846px;" id="el7jgs29kn57w" class="animable"></path><path d="M564.31,126.17s.72,2,3,.29" style="fill: none; stroke: rgb(38, 50, 56); stroke-miterlimit: 10; transform-origin: 565.81px 126.661px;" id="el6ovfktcydw" class="animable"></path><path d="M545.32,116l1.15.87S546,120.56,546,123s2.88,7.91,3.74,9.78,3.89,2.73,3.89,2.73" style="fill: none; stroke: rgb(38, 50, 56); stroke-miterlimit: 10; transform-origin: 549.475px 125.755px;" id="el4e1im9xvk38" class="animable"></path><line x1="549.78" y1="132.79" x2="546.76" y2="134.52" style="fill: none; stroke: rgb(38, 50, 56); stroke-miterlimit: 10; transform-origin: 548.27px 133.655px;" id="elmh8xu6ieuk" class="animable"></line><path d="M514.8,136.36a27,27,0,0,0,2.84-10.83" style="fill: none; stroke: rgb(38, 50, 56); stroke-miterlimit: 10; transform-origin: 516.22px 130.945px;" id="el3joc5bne6jv" class="animable"></path><path d="M560,163.82s4.2-5.68,5.14-11.77" style="fill: none; stroke: rgb(38, 50, 56); stroke-miterlimit: 10; transform-origin: 562.57px 157.935px;" id="elfvak9njrdbe" class="animable"></path><path d="M496.41,144.61l6.22,14.2s5,3.38,5.41,3.79,1.76,3.65,1.35,4.6-1.76-3.25-2.7-2.71a3.52,3.52,0,0,0-1.63,2.84c.14.82,4.2,8.53,3.79,8.8a2.84,2.84,0,0,1-2.3.4c-1.08-.27-1.08-.54-1.76-.54a24.08,24.08,0,0,1-4.19-.27c-1.08-.27-3.25-3.11-3.79-4.06s-1.35-9.06-1.35-9.06l-11.23-14.47S490.72,142.58,496.41,144.61Z" style="fill: rgb(255, 255, 255); stroke: rgb(38, 50, 56); stroke-miterlimit: 10; transform-origin: 496.848px 160.391px;" id="elrtdegvk9p1g" class="animable"></path><path d="M501.14,167.88s2.71,4.73,3.11,5.81a10.64,10.64,0,0,1,.54,2.3" style="fill: none; stroke: rgb(38, 50, 56); stroke-miterlimit: 10; transform-origin: 502.965px 171.935px;" id="el4uv6xbq6rx" class="animable"></path><path d="M498.43,170.45s2.17,3.65,4.47,5.14" style="fill: none; stroke: rgb(38, 50, 56); stroke-miterlimit: 10; transform-origin: 500.665px 173.02px;" id="elqx10q3riz4" class="animable"></path><g id="elkkp2wqvks3n"><rect x="527.38" y="179.78" width="2.42" height="66.68" style="fill: rgb(255, 255, 255); stroke: rgb(38, 50, 56); stroke-miterlimit: 10; transform-origin: 528.59px 213.12px; transform: rotate(-24.85deg);" class="animable"></rect></g><path d="M512.74,183.72l-8.06-16.67a2,2,0,0,1,1-2.71h0a2,2,0,0,1,2.66.95L516.4,182Z" style="fill: rgb(38, 50, 56); stroke: rgb(38, 50, 56); stroke-miterlimit: 10; transform-origin: 510.439px 173.934px;" id="elivjn8tgeo7k" class="animable"></path><path d="M557,235.49s-14.56,8.82-19.77,14.43-20.71,23.38-23.38,26.18-7.62,9.62-9.08,11-3.61,1.2-2.94,4.4,1.07,3.48,1.07,4.28-.14,3.47-.14,3.47-6.28,6.55-7.08,8.42,0,5.61.94,7.61,2.8,3.34,2.8,3.74-1.6,5.88-2,7.35.8,4.94.8,4.94-3.07,4.54-.93,6.68,6,2.54,6.67,2,46.76-2.4,50.36-3.87,6.82-2.94,9.49-6.14a26.73,26.73,0,0,1,5.07-4.81s2.41-2.27,2.41-4.55-.27-2.8-.14-3.47a7.72,7.72,0,0,1,1.21-2l.93-3.47s-.8.8.67-6.95,1.74-9.75,1.74-9.75l-.27-4.94-.54-5.08s-4.54-22.58-6.94-28.45-3.74-9.75-4-10.56a37.71,37.71,0,0,1-.4-4.81s2.41-4.14,2-5.07S558.24,233.62,557,235.49Z" style="fill: rgb(156, 156, 156); stroke: rgb(38, 50, 56); stroke-miterlimit: 10; transform-origin: 535.526px 287.404px;" id="elulwjufr6v99" class="animable"></path><path d="M559.31,206.83,558.47,221s-2.86,9.44-2.61,11.18,3.1,6.21,3.1,6.21.87,2.36,1.62,1.49,1.36-1.36,1-2.86l-.37-1.49s2.61.75,2.73,1.87-.62,4.35.25,4.59,3.73-5.59,4-6.33-2-4-2.49-5.1-2.48-3.6-2.48-4.34,8-17.63,8-17.63Z" style="fill: rgb(255, 255, 255); stroke: rgb(38, 50, 56); stroke-miterlimit: 10; transform-origin: 563.532px 224.414px;" id="elzy324j0vxv" class="animable"></path><line x1="561.2" y1="235.53" x2="559.46" y2="231.56" style="fill: none; stroke: rgb(38, 50, 56); stroke-miterlimit: 10; transform-origin: 560.33px 233.545px;" id="elw5ilbrdod5f" class="animable"></line><path d="M550.76,252.06a46.43,46.43,0,0,0-1.21,4.67,38.1,38.1,0,0,1-.8,3.88l-.8,1.47s-2.8,2.27-2.8,3.6a31.8,31.8,0,0,0,.66,4.41s7.08,2,8,2,2-1.34,2-1.34.8,1.47,1.74,1.47,2.14-.54,2.27,0,.53,1.6.53,1.6a30.89,30.89,0,0,0,2.28-3.6c.53-1.21,1.73-.67.8-2.94a7.84,7.84,0,0,0-2-3.21c-.4-.4.8-.13-.4-.4a12.24,12.24,0,0,1-2.67-.94,24.79,24.79,0,0,1-2.27-1.2l-.53-2.13s.4-2.14.4-2.68a6.69,6.69,0,0,0-.4-1.6l-1.34-.93Z" style="fill: rgb(255, 255, 255); stroke: rgb(38, 50, 56); stroke-miterlimit: 10; transform-origin: 554.461px 262.94px;" id="elc1at88lu5pk" class="animable"></path><path d="M554.23,255.67s-1.6,5.61-1.87,6.14,3.34,4.68,3.74,4.68,3.61-.94,4.14-.54a7,7,0,0,1,1.6,2.67" style="fill: none; stroke: rgb(38, 50, 56); stroke-miterlimit: 10; transform-origin: 557.093px 262.145px;" id="elbxwweae1lr" class="animable"></path><path d="M553,267.42c-.67-.53-2.14-.67-3.61-2.81a8.63,8.63,0,0,1-1.87-5.47l.13-1.47,2.68-1.87s.13,0-.14-1.34-.85-1.26-.85-1.26l-4.94-10.67-3.66,1.7,4.94,10.66s-1.23,4.65-.16,8.12,5.47,5.88,6.28,5.88S553.7,268,553,267.42Z" style="fill: rgb(38, 50, 56); stroke: rgb(38, 50, 56); stroke-miterlimit: 10; transform-origin: 546.982px 255.71px;" id="elw5cdauuzzub" class="animable"></path><line x1="557.69" y1="239.21" x2="551.45" y2="248.48" style="fill: none; stroke: rgb(38, 50, 56); stroke-miterlimit: 10; transform-origin: 554.57px 243.845px;" id="el6ft15t20y34" class="animable"></line><line x1="558.7" y1="242.75" x2="558.03" y2="256.24" style="fill: none; stroke: rgb(38, 50, 56); stroke-miterlimit: 10; transform-origin: 558.365px 249.495px;" id="el78ydfvltg65" class="animable"></line><path d="M529.83,301.58a51.54,51.54,0,0,1,8.81,3.55" style="fill: none; stroke: rgb(38, 50, 56); stroke-miterlimit: 10; transform-origin: 534.235px 303.355px;" id="el8atsmtmux38" class="animable"></path><path d="M506.27,298.39a81.65,81.65,0,0,1,18.41,1.85" style="fill: none; stroke: rgb(38, 50, 56); stroke-miterlimit: 10; transform-origin: 515.475px 299.311px;" id="eldjoaj2vpjnv" class="animable"></path><path d="M530,298.89s14.33,4.72,21.41,10.79" style="fill: none; stroke: rgb(38, 50, 56); stroke-miterlimit: 10; transform-origin: 540.705px 304.285px;" id="elum504on2yug" class="animable"></path><path d="M499.36,317.1a24.14,24.14,0,0,1,7.08-9.27" style="fill: none; stroke: rgb(38, 50, 56); stroke-miterlimit: 10; transform-origin: 502.9px 312.465px;" id="el9q2t46xu5q" class="animable"></path><path d="M508.3,304.12s-4.56,2.86-6.24,5.22" style="fill: none; stroke: rgb(38, 50, 56); stroke-miterlimit: 10; transform-origin: 505.18px 306.73px;" id="elfrjyzuhlik6" class="animable"></path><path d="M519.81,277.27l-2.75,2.91" style="fill: none; stroke: rgb(38, 50, 56); stroke-miterlimit: 10; transform-origin: 518.435px 278.725px;" id="elaoadf9g7ad5" class="animable"></path><path d="M540.83,254.72s-10.8,11.62-18.38,19.73" style="fill: none; stroke: rgb(38, 50, 56); stroke-miterlimit: 10; transform-origin: 531.64px 264.585px;" id="el07z8iay7nsjk" class="animable"></path><path d="M572.41,294.14a48.8,48.8,0,0,1-.73,8.29" style="fill: none; stroke: rgb(38, 50, 56); stroke-miterlimit: 10; transform-origin: 572.045px 298.285px;" id="elzcpuwn9em9" class="animable"></path><path d="M563.76,258.43s6.74,25.12,8.09,30.52c.08.29.14.59.2.9" style="fill: none; stroke: rgb(38, 50, 56); stroke-miterlimit: 10; transform-origin: 567.905px 274.14px;" id="elo91d7mqml7e" class="animable"></path><path d="M557.24,284.89c2.77.6,3.66,1.7,3.66,1.7" style="fill: none; stroke: rgb(38, 50, 56); stroke-miterlimit: 10; transform-origin: 559.07px 285.74px;" id="eljdlc2ccxe7n" class="animable"></path><path d="M521.28,285.74s13.82,1.69,25.29-.5a37,37,0,0,1,6.26-.71" style="fill: none; stroke: rgb(38, 50, 56); stroke-miterlimit: 10; transform-origin: 537.055px 285.446px;" id="el4qt6vrdlkuw" class="animable"></path><path d="M549.77,281.36s-9.44,1-13,1.69" style="fill: none; stroke: rgb(38, 50, 56); stroke-miterlimit: 10; transform-origin: 543.27px 282.205px;" id="elf3zpiqxh6g6" class="animable"></path></g><g id="freepik--character-1--inject-67" class="animable" style="transform-origin: 273.857px 261.989px;"><path d="M274,230.29s-7.78,7.6-6.88,10.67,18.63,25.69,18.63,25.69,2.53,4.88,4.16,7.41,5.61,5.25,6.87,4.7,6.52-5.42,7.24-6.51-3.62-4.16-5.61-5.24-8.5-4.7-10.31-9.23S280.64,243,280.64,243l3.25-10.49Z" style="fill: rgb(255, 255, 255); stroke: rgb(38, 50, 56); stroke-miterlimit: 10; transform-origin: 285.574px 254.561px;" id="elow8fuj1od7l" class="animable"></path><path d="M296.73,278.76c1.27-.54,6.52-5.42,7.24-6.51s-3.62-4.16-5.61-5.24c-1.65-.9-6.41-3.55-9-7l-4.87,5.06,1.23,1.59s2.53,4.88,4.16,7.41S295.47,279.31,296.73,278.76Z" style="fill: rgb(11, 95, 255); stroke: rgb(38, 50, 56); stroke-miterlimit: 10; transform-origin: 294.27px 269.421px;" id="eljg2dkhhif9" class="animable"></path><path d="M297.82,270.63s-4.52,5.6-4.7,7.59-1.27,9.95-1.27,9.95-7.78,10.67-7.78,13.38,7.06,9.05,11.76,12.66,25,7.06,27.85,7.06,24.06-1.63,25.69-3.62,2-7.6,0-12.48-15.2-16.1-16.28-17.18-4-12.12-6.87-14.65-15.56-3.08-17.55-2.9S299.45,270.44,297.82,270.63Z" style="fill: rgb(156, 156, 156); stroke: rgb(38, 50, 56); stroke-miterlimit: 10; transform-origin: 317.402px 295.839px;" id="elg0nysbyafm9" class="animable"></path><path d="M333.86,314.27c7.15,3.26,9.61,4.44,11.34,2.46a6.77,6.77,0,0,0,1.89-4.49" style="fill: none; stroke: rgb(38, 50, 56); stroke-miterlimit: 10; transform-origin: 340.475px 314.968px;" id="eli7x9h7pezga" class="animable"></path><path d="M297.79,273.24s-2.75,8.84-1.59,14.93,23.05,19.57,33.49,24.21l.95.43" style="fill: none; stroke: rgb(38, 50, 56); stroke-miterlimit: 10; transform-origin: 313.277px 293.025px;" id="elxdccnrjnrpr" class="animable"></path><path d="M328.41,293.84c1.84,2.48,3.31,4.34,3.31,4.34" style="fill: none; stroke: rgb(38, 50, 56); stroke-miterlimit: 10; transform-origin: 330.065px 296.01px;" id="elkm3pcnlhze" class="animable"></path><path d="M309,273.24s11.45,8.84,14.64,13.77c1,1.56,2.19,3.24,3.33,4.82" style="fill: none; stroke: rgb(38, 50, 56); stroke-miterlimit: 10; transform-origin: 317.985px 282.535px;" id="el917s87458l" class="animable"></path><path d="M305.77,273.67s5.22,7.11,7.1,13.2" style="fill: none; stroke: rgb(38, 50, 56); stroke-miterlimit: 10; transform-origin: 309.32px 280.27px;" id="elvmn50xcbnea" class="animable"></path><path d="M292.43,289.19a8,8,0,0,0,3.77,8.7" style="fill: none; stroke: rgb(38, 50, 56); stroke-miterlimit: 10; transform-origin: 294.214px 293.54px;" id="elktxofyonm7" class="animable"></path><path d="M294.56,266.47l5.61-.73s4,3.8,4.88,4.16,2.17,2,.91,2.53-5.61-2.35-5.61-2.35a12,12,0,0,1-4.16.73l-1.63-.18" style="fill: rgb(11, 95, 255); stroke: rgb(38, 50, 56); stroke-miterlimit: 10; transform-origin: 300.523px 269.118px;" id="el8jhyxq7mfbg" class="animable"></path><path d="M302.7,202.28s-9.81-4.61-26.68-11.1-29.71-8.37-44-4.9-24.66,11.25-24.09,24.95,15.15,51.77,14.14,54.23-10.39,11-13.13,20.33-6.34,32.16-6.77,33.9-3.47.86-3.75,5.48S197,334.69,197,336s9,2.31,16,3,13.42.58,15.44-1.15,1.87-3.46.57-4a21.07,21.07,0,0,1-7.07-6.06c-2.45-3.32-5.91-5.33-6.34-7.5s1-7.93,1-7.93,8.22-21.06,12.11-27.4,10.82-10.68,12-17.6a104.3,104.3,0,0,0,.87-16.59s7.36,16.16,7.93,19.19-4,7.35-2,19,4.76,30.86,5,31.72-1.73.58-1.59,3.32-.86,10.82-.14,11.25,8.51.87,11.54.15,9.95-1.59,12.11-1,9.38.86,11.11-.44,1.73-5.19,1.15-5.19a24.46,24.46,0,0,1-7.93-3.32c-3.75-2.3-11.11-4.18-12.4-5.91s-1.73-2.59-1.73-3.32.72-19.76.14-24.66.58-18.32.58-21.78,1.87-7.06.72-13.27-5.91-23.07-7.07-26.68-3-8.8-3-8.8A34.19,34.19,0,0,0,266.65,230,42,42,0,0,0,278,233.73l13,10.38,3.17-9.52.58-3.6a36.91,36.91,0,0,0,3.61-3.61c1.58-1.87,3.75-3.61,5-6.06S302.7,202.28,302.7,202.28Z" style="fill: rgb(255, 255, 255); stroke: rgb(38, 50, 56); stroke-miterlimit: 10; transform-origin: 250.392px 261.981px;" id="elte17g9egl88" class="animable"></path><path d="M264.77,291.56c-.58-4.9.58-18.32.58-21.78s1.87-7.06.72-13.27-5.91-23.07-7.07-26.68-3-8.8-3-8.8a36.31,36.31,0,0,0,5.27,5.38l-3.17-10.56s-13.82-1-20.73-6.7c-5-4.06-9.6-15-11.82-20.88-10.8,4.11-18.06,11.44-17.58,23,.58,13.7,15.15,51.77,14.14,54.23s-10.39,11-13.13,20.33c-2,6.82-4.44,20.74-5.8,28.49a12.44,12.44,0,0,0,12.45,3.49,47.46,47.46,0,0,1,1-5.44s8.22-21.06,12.11-27.4,10.82-10.68,12-17.6a104.3,104.3,0,0,0,.87-16.59s7.36,16.16,7.93,19.19-4,7.35-2,19c1.38,7.95,3.09,19.37,4.13,26.13,4.46.71,9.37.63,13.12-1.74C264.88,307.7,265.22,295.37,264.77,291.56Z" style="fill: rgb(38, 50, 56); stroke: rgb(38, 50, 56); stroke-miterlimit: 10; transform-origin: 234.812px 253.271px;" id="elnhxwzvgn8al" class="animable"></path><path d="M276,191.18c-16.87-6.49-29.71-8.37-44-4.9-6.72,1.63-12.58,4.22-16.84,7.93-.78,2.9-.19,7,5.16,12.11,10.82,10.24,15.86,14.28,23.94,14.28s10.53-1.3,10.53-1.3.88,1.84,2,4C256.32,222,256,221,256,221A34.19,34.19,0,0,0,266.65,230,42,42,0,0,0,278,233.73l13,10.38,3.17-9.52.58-3.6a36.91,36.91,0,0,0,3.61-3.61c1.58-1.87,3.75-3.61,5-6.06s-.72-19-.72-19S292.89,197.67,276,191.18Z" style="fill: rgb(11, 95, 255); stroke: rgb(38, 50, 56); stroke-miterlimit: 10; transform-origin: 259.328px 214.338px;" id="el6v033tendl4" class="animable"></path><path d="M309.19,203.87s3.75-5.77,13.42-6.34,16.15,1.58,20.62,13,1.73,18.6,1.73,22.35,1.73,13.85-.14,17-4.76,4.18-4.91,5.91a2.55,2.55,0,0,0,1.3,2.45s-1.73,1.45-6.06-1.44-4-6.49-4.18-8.51-2,1.3-6.06-.72-3-6.2-2.88-7.5-1.59-1.15-3.9-1.87-3.6-6.2-2.88-8.94-.87-6.21-3.61-6.21-4.32-3.89-4.32-8.94A34.93,34.93,0,0,1,309.19,203.87Z" style="fill: rgb(38, 50, 56); stroke: rgb(38, 50, 56); stroke-miterlimit: 10; transform-origin: 326.556px 228.025px;" id="elemjw2rbnpo4" class="animable"></path><path d="M337.6,225.07a7.49,7.49,0,0,1-3.75,4c-3,1.59-5.19,1.59-6.34,3s-1,3.61-1.88,3.89-3.17-1-3.17-1-2.45.44-5.91.87-5.05-.43-5.34-2.31-.29-9.08.43-10.53a19.79,19.79,0,0,1,1.59-2.59s-1.3-3.75,1.15-5.63,3.9-1.15,4.48.44a6.85,6.85,0,0,1-.15,3.75l4.62-1.3s3,3.31,5.91,4.47,7.64.29,7.64.29Z" style="fill: rgb(255, 255, 255); stroke: rgb(38, 50, 56); stroke-miterlimit: 10; transform-origin: 324.314px 224.826px;" id="elsbo6ea4yr1m" class="animable"></path><path d="M319.14,234a5.68,5.68,0,0,1,1-2.74" style="fill: none; stroke: rgb(38, 50, 56); stroke-miterlimit: 10; transform-origin: 319.64px 232.63px;" id="elqdzp9115ye8" class="animable"></path><path d="M327.94,229.11l-2.88.29a2.16,2.16,0,0,1-.72-3.17" style="fill: none; stroke: rgb(38, 50, 56); stroke-miterlimit: 10; transform-origin: 325.934px 227.815px;" id="elr9ubiylaan9" class="animable"></path><path d="M327.22,225.51s2.74,1.15,2.16,3.75" style="fill: none; stroke: rgb(38, 50, 56); stroke-miterlimit: 10; transform-origin: 328.34px 227.385px;" id="eluk44zvq49s" class="animable"></path><path d="M316.26,203.44s-4.9-.43-7.07.43-6.49-1.59-6.49-1.59-2.45-.28-3,5.05a14.28,14.28,0,0,0,1.88,8.94s-3.46-2.3-3.17,1.16,3.31,7.79,4.18,8.8-1.73-.29-1,2.3,5.91,5.48,8.22,5.92,2.6-.87,2.74-6.2a42.93,42.93,0,0,1,.72-7.79s-1.59-6.49.58-9.38,5.91-3.75,6.2-6.63" style="fill: rgb(38, 50, 56); stroke: rgb(38, 50, 56); stroke-miterlimit: 10; transform-origin: 309.221px 218.403px;" id="el0iq36w8gzcyo" class="animable"></path><path d="M239.24,199.18s8.08,12.26,13.27,17" style="fill: none; stroke: rgb(38, 50, 56); stroke-miterlimit: 10; transform-origin: 245.875px 207.68px;" id="eld5gp6j4ub49" class="animable"></path><path d="M246.6,198.75s1.58,8.22,4.61,13.56" style="fill: none; stroke: rgb(38, 50, 56); stroke-miterlimit: 10; transform-origin: 248.905px 205.53px;" id="elgbtroce1bzv" class="animable"></path><path d="M225.68,204.52s12.26,10.67,22.65,11.25" style="fill: none; stroke: rgb(38, 50, 56); stroke-miterlimit: 10; transform-origin: 237.005px 210.145px;" id="ela6az8a8zf9c" class="animable"></path><line x1="275.15" y1="221.39" x2="278.33" y2="231.63" style="fill: none; stroke: rgb(38, 50, 56); stroke-miterlimit: 10; transform-origin: 276.74px 226.51px;" id="ely8x19ne1xq" class="animable"></line><path d="M228.43,337.86c2-1.73,1.87-3.46.57-4a21.07,21.07,0,0,1-7.07-6.06c-2.45-3.32-5.91-5.33-6.34-7.5a3.48,3.48,0,0,1-.05-.36c-1.31-.13-3.61-.22-4.95.44-2,1-1.73,3.46-4.11,3.46s-3-.65-3.13-1.62a3,3,0,0,0-1.19-1.73l-.31-.17c-.9,1-3.18.92-3.42,4.89-.29,4.61-1.45,9.51-1.45,10.81s9,2.31,16,3S226.41,339.59,228.43,337.86Z" style="fill: rgb(255, 255, 255); stroke: rgb(38, 50, 56); stroke-miterlimit: 10; transform-origin: 213.469px 329.63px;" id="el6kdf123uqrx" class="animable"></path><path d="M286.69,328.77a24.46,24.46,0,0,1-7.93-3.32c-3.67-2.26-10.8-4.1-12.3-5.8a24.12,24.12,0,0,1-4.95,2.75c-2.7,1-6.59,1.08-7.13,0a4.5,4.5,0,0,0-1.87-1.71c.29.87-1.73.58-1.59,3.32s-.86,10.82-.14,11.25,8.51.87,11.54.15,9.95-1.59,12.11-1,9.38.86,11.11-.44S287.27,328.77,286.69,328.77Z" style="fill: rgb(255, 255, 255); stroke: rgb(38, 50, 56); stroke-miterlimit: 10; transform-origin: 268.777px 327.721px;" id="elo0m0bjlujhl" class="animable"></path><path d="M279.05,230.05s-2,22.07-.58,34.47,3.9,46.3,3.9,46.3l7.35-1.16-1-46.73,2.74-19.9Z" style="fill: rgb(255, 255, 255); stroke: rgb(38, 50, 56); stroke-miterlimit: 10; transform-origin: 284.71px 270.435px;" id="eldvlkgiamwg6" class="animable"></path><path d="M296.05,323.11s5.8,1.16,7.11.87,5.8-1,6.38-1.16,6.67-2.17,8.41-.14,2,6.52-.29,8.7-6.82,2.61-10.88,2-5.67-.93-8.12-1.16-1.11-1.62-4.32-.81-9.45.66-12.35.37-6.38-2.17-5.65-7.25,4.09-5.69,5.16-4.95S296.05,323.11,296.05,323.11Z" style="fill: rgb(255, 255, 255); stroke: rgb(38, 50, 56); stroke-miterlimit: 10; transform-origin: 297.779px 326.477px;" id="elfg28jhho7rq" class="animable"></path><path d="M318.82,324.27s5.36-.14,5.5.58a9.09,9.09,0,0,1-.29,3.48c-.29.58-4.63.73-4.63.73Z" style="fill: rgb(11, 95, 255); stroke: rgb(38, 50, 56); stroke-miterlimit: 10; transform-origin: 321.598px 326.66px;" id="elrx4arp3u01" class="animable"></path><path d="M289.58,306.78l-8.66,2.45s-.43,8.8.58,10.38a30.71,30.71,0,0,1,2.16,5.48s.15,5.05.73,6.35,3.13.89,4.47,1.44c1.61.67,4-3.95,4.41-5.47.2-.79,1.21,3.16,1.07,4a1,1,0,0,0,1.87.58,12,12,0,0,0,.15-7.5c-.87-2-5.05-11.25-5.34-12.26S289.58,306.78,289.58,306.78Z" style="fill: rgb(11, 95, 255); stroke: rgb(38, 50, 56); stroke-miterlimit: 10; transform-origin: 288.859px 319.863px;" id="elwxfjtwlelk" class="animable"></path><path d="M289.79,327.48a20.45,20.45,0,0,1-.45,3.56,6.33,6.33,0,0,1-1.33,1.71" style="fill: none; stroke: rgb(38, 50, 56); stroke-miterlimit: 10; transform-origin: 288.9px 330.115px;" id="elkp7cmvzl1ql" class="animable"></path><path d="M286.89,327s-.14,2.9-.29,3.71a7.43,7.43,0,0,1-.74,1.86" style="fill: none; stroke: rgb(38, 50, 56); stroke-miterlimit: 10; transform-origin: 286.375px 329.785px;" id="el8puk0k2w9vh" class="animable"></path></g><g id="freepik--garbage-can--inject-67" class="animable" style="transform-origin: 400.325px 262.73px;"><polygon points="429.41 315.79 371.24 315.79 366.1 212.09 434.55 212.09 429.41 315.79" style="fill: rgb(11, 95, 255); stroke: rgb(38, 50, 56); stroke-miterlimit: 10; transform-origin: 400.325px 263.94px;" id="el6iw7gaomh6g" class="animable"></polygon><rect x="362.65" y="209.67" width="75.35" height="4.84" style="fill: rgb(11, 95, 255); stroke: rgb(38, 50, 56); stroke-miterlimit: 10; transform-origin: 400.325px 212.09px;" id="elxebdgi79vwc" class="animable"></rect><g id="freepik--dhgKEQ.tif--inject-67" class="animable" style="transform-origin: 401.27px 257.765px;"><path d="M428.83,262l-9.63,15.55a4.42,4.42,0,0,1-4.07,2.18c-2.06,0-4.12,0-6.38,0v4.61l-.32.07c-.56-1-1.12-1.91-1.67-2.87-1.43-2.49-2.87-5-4.26-7.5a1.45,1.45,0,0,1-.11-1.18c2-3.75,4-7.48,6.16-11.49v5.64h9.25l-7.19-12.56,11.69-6.77c2.19,4,4.36,7.94,6.53,11.88Z" style="fill: rgb(255, 255, 255); transform-origin: 415.571px 266.045px;" id="elh9b8xnuzlgd" class="animable"></path><path d="M394.26,231.12a13.42,13.42,0,0,0,1.53.22c4.54.07,9.09.15,13.63.18a4.53,4.53,0,0,1,4.36,2.52c1,1.78,2,3.49,3.11,5.31L421,237l.16.13q-1.53,2.81-3.07,5.59c-.89,1.64-1.78,3.28-2.71,4.89a1.4,1.4,0,0,1-.85.7c-4.25.25-8.49.43-12.83.4,1.49-.89,3-1.77,4.57-2.69l-4.7-8c-2.43,4.37-4.77,8.59-7.13,12.82l-11.76-6.49c.6-1.08,1.15-2.1,1.71-3.12,1.06-1.91,2.2-3.79,3.16-5.75a7.87,7.87,0,0,1,4.76-4.35Z" style="fill: rgb(255, 255, 255); transform-origin: 401.92px 240.98px;" id="eltmn2ld88ojn" class="animable"></path><path d="M377.82,252.56l-4.11-2.49,0-.21h4.55c2.07,0,4.14.12,6.2,0a2.93,2.93,0,0,1,3.16,1.72c1.88,3.3,3.94,6.5,5.81,9.91l-4.69-2.82-4.64,8.05H398.6v13.49h-2c-3,0-6.08,0-9.13,0a6,6,0,0,1-5.68-3.47c-2.34-4.53-4.68-9.06-7.11-13.55a4.87,4.87,0,0,1,.12-5.47C375.83,256.08,376.75,254.36,377.82,252.56Z" style="fill: rgb(255, 255, 255); transform-origin: 386.155px 265.018px;" id="el3nq5or6avhe" class="animable"></path></g></g><defs>     <filter id="active" height="200%">         <feMorphology in="SourceAlpha" result="DILATED" operator="dilate" radius="2"></feMorphology>                <feFlood flood-color="#32DFEC" flood-opacity="1" result="PINK"></feFlood>        <feComposite in="PINK" in2="DILATED" operator="in" result="OUTLINE"></feComposite>        <feMerge>            <feMergeNode in="OUTLINE"></feMergeNode>            <feMergeNode in="SourceGraphic"></feMergeNode>        </feMerge>    </filter>    <filter id="hover" height="200%">        <feMorphology in="SourceAlpha" result="DILATED" operator="dilate" radius="2"></feMorphology>                <feFlood flood-color="#ff0000" flood-opacity="0.5" result="PINK"></feFlood>        <feComposite in="PINK" in2="DILATED" operator="in" result="OUTLINE"></feComposite>        <feMerge>            <feMergeNode in="OUTLINE"></feMergeNode>            <feMergeNode in="SourceGraphic"></feMergeNode>        </feMerge>            <feColorMatrix type="matrix" values="0   0   0   0   0                0   1   0   0   0                0   0   0   0   0                0   0   0   1   0 "></feColorMatrix>    </filter></defs></svg>